{
	"materials":[{
		"pbrMetallicRoughness":{
			"baseColorFactor":[0.0,
			0.0,
			0.0,
			1.0],
			"metallicFactor":0.0,
			"roughnessFactor":0.16
		},
		"emissiveFactor":[0.0,
		0.0,
		0.0],
		"alphaMode":"OPAQUE",
		"doubleSided":false,
		"name":"Mat.4"
	},
	{
		"pbrMetallicRoughness":{
			"baseColorFactor":[0.20473773265651463,
			0.07378872598280469,
			0.07378872598280469,
			1.0],
			"metallicFactor":1.0,
			"roughnessFactor":1.0
		},
		"emissiveFactor":[0.0,
		0.0,
		0.0],
		"alphaMode":"BLEND",
		"doubleSided":false,
		"name":"Fish"
	},
	{
		"pbrMetallicRoughness":{
			"baseColorFactor":[0.8324705950348985,
			0.1944705906738253,
			0.03752941297447563,
			1.0],
			"metallicFactor":0.8700000047683716,
			"roughnessFactor":0.2697000014781952
		},
		"emissiveFactor":[0.0,
		0.0,
		0.0],
		"alphaMode":"OPAQUE",
		"doubleSided":false,
		"name":"egg_outter1"
	},
	{
		"pbrMetallicRoughness":{
			"baseColorFactor":[0.4580392428940421,
			0.2478431500173084,
			0.1380392214363697,
			1.0],
			"metallicFactor":0.800000011920929,
			"roughnessFactor":0.0
		},
		"emissiveFactor":[0.0,
		0.0,
		0.0],
		"alphaMode":"OPAQUE",
		"doubleSided":false,
		"name":"eye_gold"
	},
	{
		"pbrMetallicRoughness":{
			"baseColorFactor":[1.0,
			0.6073333333333335,
			0.24,
			0.8023350253807107],
			"metallicFactor":0.0,
			"roughnessFactor":0.25
		},
		"emissiveFactor":[0.0,
		0.0,
		0.0],
		"alphaMode":"BLEND",
		"doubleSided":false,
		"name":"Egg Salmon"
	}],
	"asset":{
		"version":"2.0",
		"generator":"Created using the official Cinema 4D glTF Exporter 1.000x284978"
	},
	"nodes":[{
		"name":"Fry_model_4_rigged",
		"translation":[0.0,
		0.0,
		0.0],
		"rotation":[0.0,
		0.0,
		0.0,
		-1.0],
		"scale":[1.0,
		1.0,
		1.0],
		"children":[1,
		10,
		19]
	},
	{
		"name":"Fry_model_4_rigged",
		"translation":[0.0,
		0.0,
		0.0],
		"rotation":[0.0,
		0.0,
		0.0,
		-1.0],
		"scale":[1.0,
		1.0,
		1.0],
		"children":[2,
		4,
		6,
		8]
	},
	{
		"name":"Fry_model_4_rigged-Mat.4",
		"translation":[0.0,
		0.0,
		0.0],
		"rotation":[0.0,
		-1.2246468525851679e-16,
		0.0,
		1.0],
		"scale":[1.0,
		1.0,
		1.0],
		"children":[3]
	},
	{
		"name":"Fry_model_4_rigged-Mat.4",
		"mesh":0,
		"skin":0
	},
	{
		"name":"Fry_model_4_rigged-Fish",
		"translation":[0.0,
		0.0,
		0.0],
		"rotation":[0.0,
		-1.2246468525851679e-16,
		0.0,
		1.0],
		"scale":[1.0,
		1.0,
		1.0],
		"children":[5]
	},
	{
		"name":"Fry_model_4_rigged-Fish",
		"mesh":1,
		"skin":1
	},
	{
		"name":"Fry_model_4_rigged-egg_outter1",
		"translation":[0.0,
		0.0,
		0.0],
		"rotation":[0.0,
		-1.2246468525851679e-16,
		0.0,
		1.0],
		"scale":[1.0,
		1.0,
		1.0],
		"children":[7]
	},
	{
		"name":"Fry_model_4_rigged-egg_outter1",
		"mesh":2,
		"skin":2
	},
	{
		"name":"Fry_model_4_rigged-eye_gold",
		"translation":[0.0,
		0.0,
		0.0],
		"rotation":[0.0,
		-1.2246468525851679e-16,
		0.0,
		1.0],
		"scale":[1.0,
		1.0,
		1.0],
		"children":[9]
	},
	{
		"name":"Fry_model_4_rigged-eye_gold",
		"mesh":3,
		"skin":3
	},
	{
		"name":"Joint.2",
		"translation":[1.0658141036401503e-14,
		6.661338147750939e-16,
		-18.63333511352539],
		"rotation":[0.2316175103187561,
		0.1853884756565094,
		0.18212668597698213,
		0.9374509453773499],
		"scale":[1.0,
		1.0,
		1.0],
		"children":[11]
	},
	{
		"name":"Joint.4",
		"translation":[-8.862815856933594,
		-4.10431432723999,
		-26.015241622924806],
		"rotation":[-0.12640362977981568,
		0.08753301203250885,
		-0.01290006935596466,
		-0.9880251288414002],
		"scale":[1.0,
		1.0,
		1.0],
		"children":[12]
	},
	{
		"name":"Joint.5",
		"translation":[-8.319158554077149,
		-4.70495080947876,
		-11.065193176269532],
		"rotation":[-0.04813224449753761,
		-0.002343488857150078,
		-0.0001129285737988539,
		0.9988382458686829],
		"scale":[1.0,
		1.0,
		1.0],
		"children":[13]
	},
	{
		"name":"Joint.7",
		"translation":[-15.278155326843262,
		3.479163646697998,
		-22.997175216674806],
		"rotation":[-0.3092917203903198,
		0.006234148051589727,
		-0.008383410982787609,
		-0.9509098529815674],
		"scale":[1.0,
		1.0,
		1.0],
		"children":[14]
	},
	{
		"name":"Joint.9",
		"translation":[0.45424947142601015,
		3.013925313949585,
		-27.17265510559082],
		"rotation":[0.34285297989845278,
		0.0003250677837058902,
		0.03227107971906662,
		0.938834547996521],
		"scale":[1.0,
		1.0,
		1.0],
		"children":[15]
	},
	{
		"name":"Joint.12",
		"translation":[17.348102569580079,
		1.8054488897323609,
		-23.706396102905275],
		"rotation":[0.33982622623443606,
		-0.6469915509223938,
		0.1990034282207489,
		0.6529301404953003],
		"scale":[1.0,
		1.0,
		1.0],
		"children":[16]
	},
	{
		"name":"Joint.13",
		"translation":[-6.13374662399292,
		-3.377734422683716,
		-16.974679946899415],
		"rotation":[0.15446573495864869,
		0.04353416711091995,
		-0.12021268159151077,
		-0.9796907901763916],
		"scale":[1.0,
		1.0,
		1.0],
		"children":[17]
	},
	{
		"name":"Joint.14",
		"translation":[2.7070446014404299,
		4.275010585784912,
		-10.558040618896485],
		"rotation":[0.12640658020973206,
		0.14652685821056367,
		0.22095683217048646,
		0.9558919072151184],
		"scale":[1.0,
		1.0,
		1.0],
		"children":[18]
	},
	{
		"name":"Joint.16",
		"translation":[-2.158454179763794,
		21.630468368530275,
		-8.365328788757325],
		"rotation":[0.7610333561897278,
		-0.34225454926490786,
		-0.11710833758115769,
		-0.5384939312934876],
		"scale":[1.0,
		1.0,
		1.0]
	},
	{
		"name":"Sphere.1",
		"translation":[6.0930633544921879,
		29.70536231994629,
		-29.668888092041017],
		"rotation":[0.43740299344062807,
		0.798844575881958,
		-0.21648645401000977,
		0.3516526222229004],
		"scale":[1.0,
		1.0,
		1.0],
		"mesh":4
	}],
	"scenes":[{
		"nodes":[0]
	}],
	"meshes":[{
		"name":"Fry_model_4_rigged-Mat.4",
		"primitives":[{
			"attributes":{
				"POSITION":1,
				"NORMAL":2,
				"TEXCOORD_0":3,
				"JOINTS_0":4,
				"WEIGHTS_0":5
			},
			"indices":0,
			"material":0
		}]
	},
	{
		"name":"Fry_model_4_rigged-Fish",
		"primitives":[{
			"attributes":{
				"POSITION":7,
				"NORMAL":8,
				"TEXCOORD_0":9,
				"JOINTS_0":10,
				"WEIGHTS_0":11
			},
			"indices":6,
			"material":1
		}]
	},
	{
		"name":"Fry_model_4_rigged-egg_outter1",
		"primitives":[{
			"attributes":{
				"POSITION":13,
				"NORMAL":14,
				"TEXCOORD_0":15,
				"JOINTS_0":16,
				"WEIGHTS_0":17
			},
			"indices":12,
			"material":2
		}]
	},
	{
		"name":"Fry_model_4_rigged-eye_gold",
		"primitives":[{
			"attributes":{
				"POSITION":19,
				"NORMAL":20,
				"TEXCOORD_0":21,
				"JOINTS_0":22,
				"WEIGHTS_0":23
			},
			"indices":18,
			"material":3
		}]
	},
	{
		"name":"Sphere.1",
		"primitives":[{
			"attributes":{
				"POSITION":39,
				"NORMAL":40,
				"TEXCOORD_0":41
			},
			"indices":38,
			"material":4
		}]
	}],
	"skins":[{
		"inverseBindMatrices":42,
		"joints":[10,
		11,
		12,
		13,
		14,
		15,
		16,
		17,
		18]
	},
	{
		"inverseBindMatrices":43,
		"joints":[10,
		11,
		12,
		13,
		14,
		15,
		16,
		17,
		18]
	},
	{
		"inverseBindMatrices":44,
		"joints":[10,
		11,
		12,
		13,
		14,
		15,
		16,
		17,
		18]
	},
	{
		"inverseBindMatrices":45,
		"joints":[10,
		11,
		12,
		13,
		14,
		15,
		16,
		17,
		18]
	}],
	"accessors":[{
		"bufferView":0,
		"type":"SCALAR",
		"componentType":5123,
		"count":9216,
		"byteOffset":0,
		"min":[0],
		"max":[1798]
	},
	{
		"bufferView":1,
		"type":"VEC3",
		"componentType":5126,
		"count":1799,
		"byteOffset":0,
		"min":[0.6134083867073059,
		-22.54170036315918,
		-22.03860855102539],
		"max":[45.896385192871097,
		32.95546340942383,
		13.586623191833496]
	},
	{
		"bufferView":1,
		"type":"VEC3",
		"componentType":5126,
		"count":1799,
		"byteOffset":12,
		"min":[-0.9978438019752502,
		-0.9995625615119934,
		-0.999000072479248],
		"max":[0.9971563220024109,
		0.9956563115119934,
		0.9996563196182251]
	},
	{
		"bufferView":1,
		"type":"VEC2",
		"componentType":5126,
		"count":1799,
		"byteOffset":24,
		"min":[0.0,
		0.0],
		"max":[0.0,
		0.0]
	},
	{
		"bufferView":2,
		"type":"VEC4",
		"componentType":5123,
		"count":1799,
		"byteOffset":0,
		"min":[0,
		1,
		2,
		3],
		"max":[0,
		1,
		2,
		3]
	},
	{
		"bufferView":3,
		"type":"VEC4",
		"componentType":5126,
		"count":1799,
		"byteOffset":0,
		"min":[1.0,
		0.0,
		0.0,
		0.0],
		"max":[1.0,
		0.0,
		0.0,
		0.0]
	},
	{
		"bufferView":4,
		"type":"SCALAR",
		"componentType":5123,
		"count":9972,
		"byteOffset":0,
		"min":[0],
		"max":[1663]
	},
	{
		"bufferView":5,
		"type":"VEC3",
		"componentType":5126,
		"count":1664,
		"byteOffset":0,
		"min":[-65.70295715332031,
		-41.171417236328128,
		-90.81633758544922],
		"max":[48.31531524658203,
		80.36502075195313,
		40.29481506347656]
	},
	{
		"bufferView":5,
		"type":"VEC3",
		"componentType":5126,
		"count":1664,
		"byteOffset":12,
		"min":[-0.999625027179718,
		-0.9966250658035278,
		-0.9996563196182251],
		"max":[0.999125063419342,
		0.9995625615119934,
		0.9980313181877136]
	},
	{
		"bufferView":5,
		"type":"VEC2",
		"componentType":5126,
		"count":1664,
		"byteOffset":24,
		"min":[0.0010923147201538087,
		0.004019259475171566],
		"max":[0.9885685443878174,
		0.9957197904586792]
	},
	{
		"bufferView":6,
		"type":"VEC4",
		"componentType":5123,
		"count":1664,
		"byteOffset":0,
		"min":[0,
		0,
		0,
		0],
		"max":[8,
		8,
		8,
		7]
	},
	{
		"bufferView":7,
		"type":"VEC4",
		"componentType":5126,
		"count":1664,
		"byteOffset":0,
		"min":[0.3333333432674408,
		0.0,
		0.0,
		0.0],
		"max":[1.0,
		0.49999237060546877,
		0.3333333432674408,
		0.16667430102825166]
	},
	{
		"bufferView":8,
		"type":"SCALAR",
		"componentType":5123,
		"count":12411,
		"byteOffset":0,
		"min":[0],
		"max":[2424]
	},
	{
		"bufferView":9,
		"type":"VEC3",
		"componentType":5126,
		"count":2425,
		"byteOffset":0,
		"min":[-62.73312759399414,
		-36.403018951416019,
		-74.91211700439453],
		"max":[25.22336769104004,
		77.73139953613281,
		2.9291675090789797]
	},
	{
		"bufferView":9,
		"type":"VEC3",
		"componentType":5126,
		"count":2425,
		"byteOffset":12,
		"min":[-0.9995625615119934,
		-0.9993125200271606,
		-0.9994375705718994],
		"max":[0.9999688267707825,
		0.9992188215255737,
		0.9998750686645508]
	},
	{
		"bufferView":9,
		"type":"VEC2",
		"componentType":5126,
		"count":2425,
		"byteOffset":24,
		"min":[0.012114018201828003,
		0.3495914936065674],
		"max":[0.8907241821289063,
		0.9025170803070068]
	},
	{
		"bufferView":10,
		"type":"VEC4",
		"componentType":5123,
		"count":2425,
		"byteOffset":0,
		"min":[0,
		0,
		0,
		0],
		"max":[8,
		8,
		7,
		5]
	},
	{
		"bufferView":11,
		"type":"VEC4",
		"componentType":5126,
		"count":2425,
		"byteOffset":0,
		"min":[0.37499046325683596,
		0.0,
		0.0,
		0.0],
		"max":[1.0,
		0.49999237060546877,
		0.24998855590820313,
		0.0]
	},
	{
		"bufferView":12,
		"type":"SCALAR",
		"componentType":5123,
		"count":3072,
		"byteOffset":0,
		"min":[0],
		"max":[609]
	},
	{
		"bufferView":13,
		"type":"VEC3",
		"componentType":5126,
		"count":610,
		"byteOffset":0,
		"min":[2.8075714111328127,
		-20.202043533325197,
		-19.987497329711915],
		"max":[44.489036560058597,
		33.166988372802737,
		11.289534568786621]
	},
	{
		"bufferView":13,
		"type":"VEC3",
		"componentType":5126,
		"count":610,
		"byteOffset":12,
		"min":[-0.9980313181877136,
		-0.869562566280365,
		-0.9998750686645508],
		"max":[0.9959375262260437,
		0.8840000629425049,
		0.5758437514305115]
	},
	{
		"bufferView":13,
		"type":"VEC2",
		"componentType":5126,
		"count":610,
		"byteOffset":24,
		"min":[0.0,
		0.0],
		"max":[0.0,
		0.0]
	},
	{
		"bufferView":14,
		"type":"VEC4",
		"componentType":5123,
		"count":610,
		"byteOffset":0,
		"min":[0,
		1,
		2,
		3],
		"max":[0,
		1,
		2,
		3]
	},
	{
		"bufferView":15,
		"type":"VEC4",
		"componentType":5126,
		"count":610,
		"byteOffset":0,
		"min":[1.0,
		0.0,
		0.0,
		0.0],
		"max":[1.0,
		0.0,
		0.0,
		0.0]
	},
	{
		"bufferView":16,
		"type":"SCALAR",
		"componentType":5126,
		"count":301,
		"byteOffset":0,
		"min":[0.0],
		"max":[10.0]
	},
	{
		"bufferView":16,
		"type":"VEC4",
		"componentType":5126,
		"count":301,
		"byteOffset":1204,
		"min":[-0.1303844451904297,
		-0.08708968013525009,
		-0.03980304300785065,
		-0.9880251288414002],
		"max":[0.28554993867874148,
		0.08753301203250885,
		0.01139434427022934,
		0.9874903559684753]
	},
	{
		"bufferView":17,
		"type":"SCALAR",
		"componentType":5126,
		"count":301,
		"byteOffset":0,
		"min":[0.0],
		"max":[10.0]
	},
	{
		"bufferView":17,
		"type":"VEC4",
		"componentType":5126,
		"count":301,
		"byteOffset":1204,
		"min":[-0.04813224449753761,
		-0.002343488857150078,
		-0.0070701283402740959,
		-0.9997307062149048],
		"max":[0.04812592267990112,
		0.024672282859683038,
		0.00011211700621061027,
		0.9988382458686829]
	},
	{
		"bufferView":18,
		"type":"SCALAR",
		"componentType":5126,
		"count":301,
		"byteOffset":0,
		"min":[0.0],
		"max":[10.0]
	},
	{
		"bufferView":18,
		"type":"VEC4",
		"componentType":5126,
		"count":301,
		"byteOffset":1204,
		"min":[-0.3503551185131073,
		0.006234148051589727,
		-0.027517806738615037,
		-0.9509098529815674],
		"max":[-0.3092917203903198,
		0.04027862474322319,
		-0.008383410982787609,
		-0.9353457689285278]
	},
	{
		"bufferView":19,
		"type":"SCALAR",
		"componentType":5126,
		"count":301,
		"byteOffset":0,
		"min":[0.0],
		"max":[10.0]
	},
	{
		"bufferView":19,
		"type":"VEC4",
		"componentType":5126,
		"count":301,
		"byteOffset":1204,
		"min":[0.34285297989845278,
		-0.004595797508955002,
		0.03227107971906662,
		0.9315430521965027],
		"max":[0.36124515533447268,
		0.0003250677837058902,
		0.041331708431243899,
		0.938834547996521]
	},
	{
		"bufferView":20,
		"type":"SCALAR",
		"componentType":5126,
		"count":301,
		"byteOffset":0,
		"min":[0.0],
		"max":[10.0]
	},
	{
		"bufferView":20,
		"type":"VEC4",
		"componentType":5126,
		"count":301,
		"byteOffset":1204,
		"min":[0.2994424104690552,
		-0.6469915509223938,
		0.1990034282207489,
		0.6529301404953003],
		"max":[0.33982622623443606,
		-0.6426697969436646,
		0.20956970751285554,
		0.6733426451683044]
	},
	{
		"bufferView":21,
		"type":"SCALAR",
		"componentType":5126,
		"count":301,
		"byteOffset":0,
		"min":[0.0],
		"max":[10.0]
	},
	{
		"bufferView":21,
		"type":"VEC4",
		"componentType":5126,
		"count":301,
		"byteOffset":1204,
		"min":[0.15446573495864869,
		-0.02068442478775978,
		-0.19912385940551759,
		-0.9796907901763916],
		"max":[0.2041553407907486,
		0.04353416711091995,
		-0.12021268159151077,
		-0.9582496881484985]
	},
	{
		"bufferView":22,
		"type":"SCALAR",
		"componentType":5126,
		"count":301,
		"byteOffset":0,
		"min":[0.0],
		"max":[10.0]
	},
	{
		"bufferView":22,
		"type":"VEC4",
		"componentType":5126,
		"count":301,
		"byteOffset":1204,
		"min":[0.0470433384180069,
		0.10448354482650757,
		0.22095683217048646,
		0.9558919072151184],
		"max":[0.12640658020973206,
		0.14652685821056367,
		0.22389961779117585,
		0.9679151177406311]
	},
	{
		"bufferView":23,
		"type":"SCALAR",
		"componentType":5123,
		"count":7200,
		"byteOffset":0,
		"min":[0],
		"max":[1323]
	},
	{
		"bufferView":24,
		"type":"VEC3",
		"componentType":5126,
		"count":1324,
		"byteOffset":0,
		"min":[-81.0973129272461,
		-90.18829345703125,
		-74.08180236816406],
		"max":[74.61027526855469,
		43.907981872558597,
		63.98615646362305]
	},
	{
		"bufferView":24,
		"type":"VEC3",
		"componentType":5126,
		"count":1324,
		"byteOffset":12,
		"min":[-0.9981995224952698,
		-0.9999536275863648,
		-0.9964144229888916],
		"max":[0.998199462890625,
		0.9999536871910095,
		0.9964084625244141]
	},
	{
		"bufferView":24,
		"type":"VEC2",
		"componentType":5126,
		"count":1324,
		"byteOffset":24,
		"min":[0.0,
		0.0],
		"max":[25.0,
		25.0]
	},
	{
		"bufferView":25,
		"type":"MAT4",
		"componentType":5126,
		"count":9,
		"byteOffset":0,
		"min":[0.17914362251758576,
		-0.5919846296310425,
		-0.9467530250549316,
		0.0,
		-0.9680350422859192,
		-0.6770565509796143,
		-0.8963627815246582,
		0.0,
		-0.5867919921875,
		0.25367191433906557,
		-0.5970829725265503,
		0.0,
		-4.904624938964844,
		-32.17835235595703,
		-79.25484466552735,
		1.0],
		"max":[0.9359560608863831,
		0.5206490159034729,
		0.43195265531539919,
		0.0,
		0.4273481070995331,
		0.8263664245605469,
		0.0863400548696518,
		0.0,
		0.06066260486841202,
		0.9641224145889282,
		0.9656967520713806,
		0.0,
		72.26332092285156,
		86.59513092041016,
		48.77894592285156,
		1.0]
	},
	{
		"bufferView":26,
		"type":"MAT4",
		"componentType":5126,
		"count":9,
		"byteOffset":0,
		"min":[0.17914362251758576,
		-0.5919846296310425,
		-0.9467530250549316,
		0.0,
		-0.9680350422859192,
		-0.6770565509796143,
		-0.8963627815246582,
		0.0,
		-0.5867919921875,
		0.25367191433906557,
		-0.5970829725265503,
		0.0,
		-4.904624938964844,
		-32.17835235595703,
		-79.25484466552735,
		1.0],
		"max":[0.9359560608863831,
		0.5206490159034729,
		0.43195265531539919,
		0.0,
		0.4273481070995331,
		0.8263664245605469,
		0.0863400548696518,
		0.0,
		0.06066260486841202,
		0.9641224145889282,
		0.9656967520713806,
		0.0,
		72.26332092285156,
		86.59513092041016,
		48.77894592285156,
		1.0]
	},
	{
		"bufferView":27,
		"type":"MAT4",
		"componentType":5126,
		"count":9,
		"byteOffset":0,
		"min":[0.17914362251758576,
		-0.5919846296310425,
		-0.9467530250549316,
		0.0,
		-0.9680350422859192,
		-0.6770565509796143,
		-0.8963627815246582,
		0.0,
		-0.5867919921875,
		0.25367191433906557,
		-0.5970829725265503,
		0.0,
		-4.904624938964844,
		-32.17835235595703,
		-79.25484466552735,
		1.0],
		"max":[0.9359560608863831,
		0.5206490159034729,
		0.43195265531539919,
		0.0,
		0.4273481070995331,
		0.8263664245605469,
		0.0863400548696518,
		0.0,
		0.06066260486841202,
		0.9641224145889282,
		0.9656967520713806,
		0.0,
		72.26332092285156,
		86.59513092041016,
		48.77894592285156,
		1.0]
	},
	{
		"bufferView":28,
		"type":"MAT4",
		"componentType":5126,
		"count":9,
		"byteOffset":0,
		"min":[0.17914362251758576,
		-0.5919846296310425,
		-0.9467530250549316,
		0.0,
		-0.9680350422859192,
		-0.6770565509796143,
		-0.8963627815246582,
		0.0,
		-0.5867919921875,
		0.25367191433906557,
		-0.5970829725265503,
		0.0,
		-4.904624938964844,
		-32.17835235595703,
		-79.25484466552735,
		1.0],
		"max":[0.9359560608863831,
		0.5206490159034729,
		0.43195265531539919,
		0.0,
		0.4273481070995331,
		0.8263664245605469,
		0.0863400548696518,
		0.0,
		0.06066260486841202,
		0.9641224145889282,
		0.9656967520713806,
		0.0,
		72.26332092285156,
		86.59513092041016,
		48.77894592285156,
		1.0]
	}],
	"buffers":[{
		"uri":"data:application/octet-stream;base64,",
		"byteLength":119176
	},
	{
		"uri":"data:application/octet-stream;base64,",
		"byteLength":113128
	},
	{
		"uri":"data:application/octet-stream;base64,",
		"byteLength":160624
	},
	{
		"uri":"data:application/octet-stream;base64,",
		"byteLength":40304
	},
	{
		"uri":"data:application/octet-stream;base64,",
		"byteLength":6020
	},
	{
		"uri":"data:application/octet-stream;base64,",
		"byteLength":6020
	},
	{
		"uri":"data:application/octet-stream;base64,",
		"byteLength":6020
	},
	{
		"uri":"data:application/octet-stream;base64,",
		"byteLength":6020
	},
	{
		"uri":"data:application/octet-stream;base64,",
		"byteLength":6020
	},
	{
		"uri":"data:application/octet-stream;base64,",
		"byteLength":6020
	},
	{
		"uri":"data:application/octet-stream;base64,",
		"byteLength":6020
	},
	{
		"uri":"data:application/octet-stream;base64,",
		"byteLength":56768
	},
	{
		"uri":"data:application/octet-stream;base64,",
		"byteLength":576
	},
	{
		"uri":"data:application/octet-stream;base64,",
		"byteLength":576
	},
	{
		"uri":"data:application/octet-stream;base64,",
		"byteLength":576
	},
	{
		"uri":"data:application/octet-stream;base64,",
		"byteLength":576
	}],
	"bufferViews":[{
		"buffer":0,
		"byteOffset":0,
		"byteLength":18432,
		"target":34963
	},
	{
		"buffer":0,
		"byteOffset":18432,
		"byteLength":57568,
		"target":34962,
		"byteStride":32
	},
	{
		"buffer":0,
		"byteOffset":76000,
		"byteLength":14392,
		"target":34962
	},
	{
		"buffer":0,
		"byteOffset":90392,
		"byteLength":28784,
		"target":34962
	},
	{
		"buffer":1,
		"byteOffset":0,
		"byteLength":19944,
		"target":34963
	},
	{
		"buffer":1,
		"byteOffset":19944,
		"byteLength":53248,
		"target":34962,
		"byteStride":32
	},
	{
		"buffer":1,
		"byteOffset":73192,
		"byteLength":13312,
		"target":34962
	},
	{
		"buffer":1,
		"byteOffset":86504,
		"byteLength":26624,
		"target":34962
	},
	{
		"buffer":2,
		"byteOffset":0,
		"byteLength":24822,
		"target":34963
	},
	{
		"buffer":2,
		"byteOffset":24824,
		"byteLength":77600,
		"target":34962,
		"byteStride":32
	},
	{
		"buffer":2,
		"byteOffset":102424,
		"byteLength":19400,
		"target":34962
	},
	{
		"buffer":2,
		"byteOffset":121824,
		"byteLength":38800,
		"target":34962
	},
	{
		"buffer":3,
		"byteOffset":0,
		"byteLength":6144,
		"target":34963
	},
	{
		"buffer":3,
		"byteOffset":6144,
		"byteLength":19520,
		"target":34962,
		"byteStride":32
	},
	{
		"buffer":3,
		"byteOffset":25664,
		"byteLength":4880,
		"target":34962
	},
	{
		"buffer":3,
		"byteOffset":30544,
		"byteLength":9760,
		"target":34962
	},
	{
		"buffer":4,
		"byteOffset":0,
		"byteLength":6020
	},
	{
		"buffer":5,
		"byteOffset":0,
		"byteLength":6020
	},
	{
		"buffer":6,
		"byteOffset":0,
		"byteLength":6020
	},
	{
		"buffer":7,
		"byteOffset":0,
		"byteLength":6020
	},
	{
		"buffer":8,
		"byteOffset":0,
		"byteLength":6020
	},
	{
		"buffer":9,
		"byteOffset":0,
		"byteLength":6020
	},
	{
		"buffer":10,
		"byteOffset":0,
		"byteLength":6020
	},
	{
		"buffer":11,
		"byteOffset":0,
		"byteLength":14400,
		"target":34963
	},
	{
		"buffer":11,
		"byteOffset":14400,
		"byteLength":42368,
		"target":34962,
		"byteStride":32
	},
	{
		"buffer":12,
		"byteOffset":0,
		"byteLength":576
	},
	{
		"buffer":13,
		"byteOffset":0,
		"byteLength":576
	},
	{
		"buffer":14,
		"byteOffset":0,
		"byteLength":576
	},
	{
		"buffer":15,
		"byteOffset":0,
		"byteLength":576
	}],
	"animations":[{
		"samplers":[{
			"input":24,
			"interpolation":"LINEAR",
			"output":25
		},
		{
			"input":26,
			"interpolation":"LINEAR",
			"output":27
		},
		{
			"input":28,
			"interpolation":"LINEAR",
			"output":29
		},
		{
			"input":30,
			"interpolation":"LINEAR",
			"output":31
		},
		{
			"input":32,
			"interpolation":"LINEAR",
			"output":33
		},
		{
			"input":34,
			"interpolation":"LINEAR",
			"output":35
		},
		{
			"input":36,
			"interpolation":"LINEAR",
			"output":37
		}],
		"channels":[{
			"sampler":0,
			"target":{
				"node":11,
				"path":"rotation"
			}
		},
		{
			"sampler":1,
			"target":{
				"node":12,
				"path":"rotation"
			}
		},
		{
			"sampler":2,
			"target":{
				"node":13,
				"path":"rotation"
			}
		},
		{
			"sampler":3,
			"target":{
				"node":14,
				"path":"rotation"
			}
		},
		{
			"sampler":4,
			"target":{
				"node":15,
				"path":"rotation"
			}
		},
		{
			"sampler":5,
			"target":{
				"node":16,
				"path":"rotation"
			}
		},
		{
			"sampler":6,
			"target":{
				"node":17,
				"path":"rotation"
			}
		}]
	}]
}