{
    "asset" : {
        "generator" : "Khronos glTF Blender I/O v1.1.46",
        "version" : "2.0"
    },
    "scene" : 0,
    "scenes" : [
        {
            "name" : "Scene",
            "nodes" : [
                0
            ]
        }
    ],
    "nodes" : [
        {
            "mesh" : 0,
            "name" : "Sphere",
            "rotation" : [
                -0.1699238419532776,
                -0.006663407664746046,
                -0.9353677034378052,
                0.3101109564304352
            ]
        }
    ],
    "materials" : [
        {
            "doubleSided" : true,
            "emissiveFactor" : [
                1,
                1,
                1
            ],
            "emissiveTexture" : {
                "index" : 0,
                "texCoord" : 0
            },
            "name" : "Mat.6",
            "normalTexture" : {
                "index" : 1,
                "scale" : 0.20000000298023224,
                "texCoord" : 0
            },
            "occlusionTexture" : {
                "index" : 2,
                "texCoord" : 0
            },
            "pbrMetallicRoughness" : {
                "baseColorTexture" : {
                    "index" : 3,
                    "texCoord" : 0
                },
                "metallicFactor" : 0,
                "roughnessFactor" : 0.2199999988079071
            }
        }
    ],
    "meshes" : [
        {
            "name" : "Mesh_0",
            "primitives" : [
                {
                    "attributes" : {
                        "POSITION" : 0,
                        "NORMAL" : 1,
                        "TEXCOORD_0" : 2
                    },
                    "indices" : 3,
                    "material" : 0
                }
            ]
        }
    ],
    "textures" : [
        {
            "source" : 0
        },
        {
            "source" : 1
        },
        {
            "source" : 2
        },
        {
            "source" : 3
        }
    ],
    "images" : [
        {
            "bufferView" : 4,
            "mimeType" : "image/png",
            "name" : "Image_0"
        },
        {
            "bufferView" : 5,
            "mimeType" : "image/png",
            "name" : "Image_1"
        },
        {
            "bufferView" : 6,
            "mimeType" : "image/png",
            "name" : "Image_2"
        },
        {
            "bufferView" : 7,
            "mimeType" : "image/png",
            "name" : "Image_3"
        }
    ],
    "accessors" : [
        {
            "bufferView" : 0,
            "componentType" : 5126,
            "count" : 1324,
            "max" : [
                68.07670593261719,
                67.6845474243164,
                67.59774017333984
            ],
            "min" : [
                -68.70082092285156,
                -67.85533142089844,
                -68.06214141845703
            ],
            "type" : "VEC3"
        },
        {
            "bufferView" : 1,
            "componentType" : 5126,
            "count" : 1324,
            "type" : "VEC3"
        },
        {
            "bufferView" : 2,
            "componentType" : 5126,
            "count" : 1324,
            "type" : "VEC2"
        },
        {
            "bufferView" : 3,
            "componentType" : 5123,
            "count" : 7200,
            "type" : "SCALAR"
        }
    ],
    "bufferViews" : [
        {
            "buffer" : 0,
            "byteLength" : 15888,
            "byteOffset" : 0
        },
        {
            "buffer" : 0,
            "byteLength" : 15888,
            "byteOffset" : 15888
        },
        {
            "buffer" : 0,
            "byteLength" : 10592,
            "byteOffset" : 31776
        },
        {
            "buffer" : 0,
            "byteLength" : 14400,
            "byteOffset" : 42368
        },
        {
            "buffer" : 0,
            "byteLength" : 718432,
            "byteOffset" : 56768
        },
        {
            "buffer" : 0,
            "byteLength" : 181775,
            "byteOffset" : 775200
        },
        {
            "buffer" : 0,
            "byteLength" : 718432,
            "byteOffset" : 956976
        },
        {
            "buffer" : 0,
            "byteLength" : 718432,
            "byteOffset" : 1675408
        }
    ],
    "buffers" : [
        {
            "byteLength" : 2393840,
            "uri" : "data:application/octet-stream;base64,"
        }
    ]
}
