{
	"asset":{
		"version":"2.0",
		"generator":"Created using the official Cinema 4D glTF Exporter 1.000x290161"
	},
	"scenes":[{
		"nodes":[0]
	}],
	"nodes":[{
		"name":"Salmon Egg ",
		"children":[1]
	},
	{
		"name":"Subdivision Surface.1",
		"children":[2,
		3,
		4]
	},
	{
		"name":"Sphere",
		"translation":[79.35896301269531,
		-17.69439125061035,
		75.92731475830078],
		"rotation":[0.31011155247688296,
		-0.9353676438331604,
		0.006663291249424219,
		0.16992299258708955],
		"scale":[0.8999999761581421,
		0.8999999761581421,
		0.8999999761581421],
		"mesh":0
	},
	{
		"name":"Sphere",
		"translation":[79.35896301269531,
		-17.69439125061035,
		75.92731475830078],
		"rotation":[0.31011155247688296,
		-0.9353676438331604,
		0.006663291249424219,
		0.16992299258708955],
		"scale":[1.0,
		1.0,
		1.0],
		"mesh":1
	},
	{
		"name":"Sphere",
		"translation":[79.35896301269531,
		-17.69439125061035,
		75.92731475830078],
		"rotation":[0.31011155247688296,
		-0.9353676438331604,
		0.006663291249424219,
		0.16992299258708955],
		"scale":[1.0199999809265137,
		1.0199999809265137,
		1.0199999809265137],
		"mesh":2
	}],
	"meshes":[{
		"primitives":[{
			"attributes":{
				"POSITION":1,
				"NORMAL":2,
				"TEXCOORD_0":3
			},
			"indices":0,
			"material":0
		}]
	},
	{
		"primitives":[{
			"attributes":{
				"POSITION":5,
				"NORMAL":6,
				"TEXCOORD_0":7
			},
			"indices":4,
			"material":1
		}]
	},
	{
		"primitives":[{
			"attributes":{
				"POSITION":9,
				"NORMAL":10,
				"TEXCOORD_0":11
			},
			"indices":8,
			"material":2
		}]
	}],
	"accessors":[{
		"bufferView":0,
		"type":"SCALAR",
		"componentType":5123,
		"count":117600,
		"byteOffset":0,
		"min":[0],
		"max":[20092]
	},
	{
		"bufferView":1,
		"type":"VEC3",
		"componentType":5126,
		"count":20093,
		"byteOffset":0,
		"min":[-68.46146392822266,
		-67.65715789794922,
		-67.43467712402344],
		"max":[67.8738784790039,
		67.82743835449219,
		67.8987045288086]
	},
	{
		"bufferView":1,
		"type":"VEC3",
		"componentType":5126,
		"count":20093,
		"byteOffset":12,
		"min":[-0.9998906850814819,
		-0.999920129776001,
		-0.9998501539230347],
		"max":[0.9999784827232361,
		0.9998830556869507,
		0.9998645782470703]
	},
	{
		"bufferView":1,
		"type":"VEC2",
		"componentType":5126,
		"count":20093,
		"byteOffset":24,
		"min":[0.0004398450255393982,
		0.005044221878051758],
		"max":[0.994659423828125,
		0.9968109130859375]
	},
	{
		"bufferView":2,
		"type":"SCALAR",
		"componentType":5123,
		"count":7200,
		"byteOffset":0,
		"min":[0],
		"max":[1323]
	},
	{
		"bufferView":3,
		"type":"VEC3",
		"componentType":5126,
		"count":1324,
		"byteOffset":0,
		"min":[-68.70082092285156,
		-67.6845474243164,
		-67.59774017333985],
		"max":[68.07670593261719,
		67.85533142089844,
		68.06214141845703]
	},
	{
		"bufferView":3,
		"type":"VEC3",
		"componentType":5126,
		"count":1324,
		"byteOffset":12,
		"min":[-0.9981269836425781,
		-0.9999200701713562,
		-0.9975636601448059],
		"max":[0.9978715181350708,
		0.9998827576637268,
		0.9972958564758301]
	},
	{
		"bufferView":3,
		"type":"VEC2",
		"componentType":5126,
		"count":1324,
		"byteOffset":24,
		"min":[0.0004398450255393982,
		0.003839433193206787],
		"max":[0.994659423828125,
		0.9980621337890625]
	},
	{
		"bufferView":4,
		"type":"SCALAR",
		"componentType":5123,
		"count":7200,
		"byteOffset":0,
		"min":[0],
		"max":[1323]
	},
	{
		"bufferView":5,
		"type":"VEC3",
		"componentType":5126,
		"count":1324,
		"byteOffset":0,
		"min":[-68.70082092285156,
		-67.6845474243164,
		-67.59774017333985],
		"max":[68.07670593261719,
		67.85533142089844,
		68.06214141845703]
	},
	{
		"bufferView":5,
		"type":"VEC3",
		"componentType":5126,
		"count":1324,
		"byteOffset":12,
		"min":[-0.9981269836425781,
		-0.9999200701713562,
		-0.9975636601448059],
		"max":[0.9978715181350708,
		0.9998827576637268,
		0.9972958564758301]
	},
	{
		"bufferView":5,
		"type":"VEC2",
		"componentType":5126,
		"count":1324,
		"byteOffset":24,
		"min":[0.0004398450255393982,
		0.003839433193206787],
		"max":[0.994659423828125,
		0.9980621337890625]
	}],
	"bufferViews":[{
		"buffer":0,
		"byteOffset":0,
		"byteLength":235200,
		"target":34963
	},
	{
		"buffer":0,
		"byteOffset":235200,
		"byteLength":642976,
		"target":34962,
		"byteStride":32
	},
	{
		"buffer":1,
		"byteOffset":0,
		"byteLength":14400,
		"target":34963
	},
	{
		"buffer":1,
		"byteOffset":14400,
		"byteLength":42368,
		"target":34962,
		"byteStride":32
	},
	{
		"buffer":2,
		"byteOffset":0,
		"byteLength":14400,
		"target":34963
	},
	{
		"buffer":2,
		"byteOffset":14400,
		"byteLength":42368,
		"target":34962,
		"byteStride":32
	}],
	"buffers":[{
		"uri":"data:application/octet-stream;base64,",
		"byteLength":878176
	},
	{
		"uri":"data:application/octet-stream;base64,",
		"byteLength":56768
	},
	{
		"uri":"data:application/octet-stream;base64,",
		"byteLength":56768
	}],
	"images":[{
		"uri":"data:image/png;base64,"
	},
	{
		"uri":"data:image/jpeg;base64,"
	}],
	"samplers":[{
		"magFilter":9729,
		"minFilter":9729,
		"wrapS":10497,
		"wrapT":10497
	},
	{
		"magFilter":9729,
		"minFilter":9729,
		"wrapS":10497,
		"wrapT":10497
	},
	{
		"magFilter":9729,
		"minFilter":9729,
		"wrapS":10497,
		"wrapT":10497
	}],
	"textures":[{
		"sampler":0,
		"source":0
	},
	{
		"sampler":1,
		"source":1
	},
	{
		"sampler":2,
		"source":1
	}],
	"materials":[{
		"pbrMetallicRoughness":{
			"baseColorTexture":{
				"index":0
			},
			"baseColorFactor":[0.8,
			0.8,
			0.8,
			1.0],
			"metallicFactor":1.0,
			"roughnessFactor":1.0
		},
		"emissiveTexture":{
			"index":1
		},
		"emissiveFactor":[1.0,
		1.0,
		1.0],
		"alphaMode":"BLEND",
		"doubleSided":true,
		"name":"Mat.9"
	},
	{
		"pbrMetallicRoughness":{
			"baseColorTexture":{
				"index":2
			},
			"baseColorFactor":[1.0,
			1.0,
			1.0,
			1.0],
			"metallicFactor":0.0,
			"roughnessFactor":0.5
		},
		"emissiveFactor":[0.0,
		0.0,
		0.0],
		"alphaMode":"OPAQUE",
		"doubleSided":true,
		"name":"Mat.8"
	},
	{
		"pbrMetallicRoughness":{
			"baseColorFactor":[0.2184,
			0.17180799999999997,
			0.13104,
			0.0],
			"metallicFactor":0.0,
			"roughnessFactor":0.0728
		},
		"emissiveFactor":[0.0,
		0.0,
		0.0],
		"alphaMode":"BLEND",
		"doubleSided":true,
		"name":"Mat.7"
	}]
}