<svg xmlns="http://www.w3.org/2000/svg" width="300" height="300" viewBox="0 0 300 300" fill="none"><path d="M250.943 150C250.943 152.605 250.868 155.211 250.645 157.816C250.273 162.953 249.529 167.94 248.337 172.779C247.072 178.213 245.36 183.499 243.275 188.561C241.042 193.921 238.362 199.057 235.31 203.97C231.737 209.628 227.568 214.913 222.953 219.752C217.37 225.558 211.042 230.769 204.268 235.161C188.635 245.136 170.025 250.943 150.074 250.943C130.124 250.943 111.514 245.136 95.8809 235.161C89.0322 230.769 82.7791 225.633 77.1215 219.752C72.5062 214.913 68.3374 209.628 64.7642 203.97C61.7121 199.132 59.0322 193.995 56.799 188.561C54.7146 183.499 53.0024 178.213 51.7369 172.779C50.6203 167.94 49.8759 162.953 49.4292 157.816C49.2059 155.211 49.1315 152.605 49.1315 150C49.1315 146.352 49.3548 142.779 49.727 139.206C49.9503 137.27 50.1737 135.335 50.5459 133.4C52.1091 123.722 55.0868 114.566 59.1811 106.079C60.1488 104.144 61.1166 102.208 62.2332 100.347C64.0942 97.072 66.1042 93.9454 68.263 90.8933C68.3374 90.8189 68.4119 90.7444 68.4119 90.67C78.3126 77.0471 91.5632 66.0298 106.898 58.7345C107.643 58.3623 108.387 58.0645 109.131 57.6923C109.504 57.5434 109.876 57.3201 110.323 57.1712C111.067 56.8735 111.811 56.5012 112.556 56.2035C124.169 51.5136 136.824 48.9826 150.074 48.9826C170.025 48.9826 188.635 54.7891 204.268 64.7643C211.191 69.1563 217.593 74.4417 223.176 80.397C227.792 85.2357 231.886 90.5211 235.459 96.1787C238.437 100.943 241.042 105.931 243.275 111.216C245.36 116.278 247.072 121.563 248.337 126.998C249.454 131.836 250.273 136.824 250.645 141.96C250.794 144.64 250.943 147.32 250.943 150Z" fill="white"></path><path d="M150 49.0571V157.816H49.4292C49.2059 155.211 49.1315 152.605 49.1315 150C49.1315 146.352 49.3548 142.779 49.727 139.206C49.9503 137.27 50.1737 135.335 50.5459 133.399C52.1091 123.722 55.0868 114.566 59.1811 106.079C60.1488 104.144 61.1166 102.208 62.2332 100.347C64.0942 97.072 66.1042 93.9454 68.263 90.8933C68.3374 90.8189 68.4119 90.7444 68.4119 90.67C78.3126 77.0471 91.5632 66.0298 106.898 58.7345C107.643 58.3623 108.387 58.0645 109.131 57.6923C109.504 57.5434 109.876 57.3201 110.323 57.1712C111.067 56.8734 111.811 56.5012 112.556 56.2035C124.094 51.6625 136.749 49.0571 150 49.0571Z" fill="#383572"></path><path d="M113.821 60.4466L115.236 64.8387L111.514 62.0844L107.792 64.8387L109.206 60.4466L106.898 58.7345C107.643 58.3623 108.387 58.0645 109.132 57.6923H110.099L110.248 57.1712C110.993 56.8734 111.737 56.5012 112.481 56.2035L112.928 57.6179H117.543L113.821 60.4466Z" fill="white"></path><path d="M124.764 64.8387L126.253 69.3052H130.868L127.146 71.9851L128.561 76.3772L124.764 73.6973L121.042 76.3772L122.457 71.9851L118.734 69.3052H123.35L124.764 64.8387Z" fill="white"></path><path d="M99.3796 64.8387L100.794 69.3052H105.409L101.687 71.9851L103.102 76.3772L99.3796 73.6973L95.5831 76.3772L97.0719 71.9851L93.2754 69.3052H97.8908L99.3796 64.8387Z" fill="white"></path><path d="M137.568 53.3002L138.983 57.7667H143.672L139.876 60.4466L141.29 64.8387L137.568 62.1588L133.846 64.8387L135.261 60.4466L131.538 57.7667H136.154L137.568 53.3002Z" fill="white"></path><path d="M86.129 74.7395L87.5434 79.1315H92.1588L88.4367 81.8859L89.8511 86.2779L86.129 83.5236L82.3325 86.2779L83.8213 81.8859L80.0248 79.1315H84.7146L86.129 74.7395Z" fill="white"></path><path d="M111.514 74.7395L112.928 79.1315H117.543L113.821 81.8859L115.236 86.2779L111.514 83.5236L107.717 86.2779L109.206 81.8859L105.409 79.1315H110.025L111.514 74.7395Z" fill="white"></path><path d="M124.764 86.2779L126.253 90.67H130.868L127.146 93.4243L128.561 97.8164L124.764 95.062L121.042 97.8164L122.457 93.4243L118.734 90.67H123.35L124.764 86.2779Z" fill="white"></path><path d="M99.3796 86.2779L100.794 90.67H105.409L101.687 93.4243L103.102 97.8164L99.3796 95.062L95.5831 97.8164L97.0719 93.4243L93.2754 90.67H97.8908L99.3796 86.2779Z" fill="white"></path><path d="M76.2283 93.4243L77.6427 97.8164L73.9206 95.062L70.1985 97.8164L71.6129 93.4243L68.1886 90.9677C68.263 90.8933 68.3375 90.8189 68.3375 90.7444H72.4318L73.8462 86.3524L75.2606 90.7444H79.8759L76.2283 93.4243Z" fill="white"></path><path d="M137.568 74.7395L138.983 79.1315H143.672L139.876 81.8859L141.29 86.2779L137.568 83.5236L133.846 86.2779L135.261 81.8859L131.538 79.1315H136.154L137.568 74.7395Z" fill="white"></path><path d="M63.0521 103.251L64.4665 107.643L60.7444 104.888L59.1067 106.079C60.0744 104.144 61.0422 102.208 62.1588 100.347L62.2332 100.496H66.8486L63.0521 103.251Z" fill="white"></path><path d="M86.129 96.1042L87.5434 100.496H92.1588L88.4367 103.251L89.8511 107.643L86.129 104.963L82.3325 107.643L83.8213 103.251L80.0248 100.496H84.7146L86.129 96.1042Z" fill="white"></path><path d="M111.514 96.1042L112.928 100.496H117.543L113.821 103.251L115.236 107.643L111.514 104.963L107.717 107.643L109.206 103.251L105.409 100.496H110.025L111.514 96.1042Z" fill="white"></path><path d="M124.764 107.643L126.253 112.035H130.868L127.146 114.789L128.561 119.181L124.764 116.501L121.042 119.181L122.457 114.789L118.734 112.035H123.35L124.764 107.643Z" fill="white"></path><path d="M99.3796 107.643L100.794 112.035H105.409L101.687 114.789L103.102 119.181L99.3796 116.501L95.5831 119.181L97.0719 114.789L93.2754 112.035H97.8908L99.3796 107.643Z" fill="white"></path><path d="M73.9206 107.643L75.335 112.035H79.9504L76.2283 114.789L77.6427 119.181L73.9206 116.501L70.1985 119.181L71.6129 114.789L67.8164 112.035H72.5062L73.9206 107.643Z" fill="white"></path><path d="M137.568 96.1042L138.983 100.496H143.672L139.876 103.251L141.29 107.643L137.568 104.963L133.846 107.643L135.261 103.251L131.538 100.496H136.154L137.568 96.1042Z" fill="white"></path><path d="M60.7444 117.543L62.1587 121.935H66.7741L63.052 124.615L64.4664 129.082L60.7444 126.328L57.0223 129.082L58.4367 124.615L54.6401 121.935H59.33L60.7444 117.543Z" fill="white"></path><path d="M86.129 117.543L87.5434 121.935H92.1588L88.4367 124.615L89.8511 129.082L86.129 126.328L82.3325 129.082L83.8213 124.615L80.0248 121.935H84.7146L86.129 117.543Z" fill="white"></path><path d="M111.514 117.543L112.928 121.935H117.543L113.821 124.615L115.236 129.082L111.514 126.328L107.717 129.082L109.206 124.615L105.409 121.935H110.025L111.514 117.543Z" fill="white"></path><path d="M124.764 129.082L126.253 133.474H130.868L127.146 136.154L128.561 140.62L124.764 137.866L121.042 140.62L122.457 136.154L118.734 133.474H123.35L124.764 129.082Z" fill="white"></path><path d="M99.3796 129.082L100.794 133.474H105.409L101.687 136.154L103.102 140.62L99.3796 137.866L95.5831 140.62L97.0719 136.154L93.2754 133.474H97.8908L99.3796 129.082Z" fill="white"></path><path d="M73.9206 129.082L75.335 133.474H79.9504L76.2283 136.154L77.6427 140.62L73.9206 137.866L70.1985 140.62L71.6129 136.154L67.8164 133.474H72.5062L73.9206 129.082Z" fill="white"></path><path d="M50.0992 136.154L51.5136 140.546L49.6526 139.206C49.8759 137.27 50.0992 135.335 50.4715 133.4H53.8958L50.0992 136.154Z" fill="white"></path><path d="M137.568 117.543L138.983 121.935H143.672L139.876 124.615L141.29 129.082L137.568 126.328L133.846 129.082L135.261 124.615L131.538 121.935H136.154L137.568 117.543Z" fill="white"></path><path d="M60.7444 138.908L62.1587 143.3H66.7741L63.052 146.055L64.4664 150.447L60.7444 147.692L57.0223 150.447L58.4367 146.055L54.6401 143.3H59.33L60.7444 138.908Z" fill="white"></path><path d="M86.129 138.908L87.5434 143.3H92.1588L88.4367 146.055L89.8511 150.447L86.129 147.692L82.3325 150.447L83.8213 146.055L80.0248 143.3H84.7146L86.129 138.908Z" fill="white"></path><path d="M111.514 138.908L112.928 143.3H117.543L113.821 146.055L115.236 150.447L111.514 147.692L107.717 150.447L109.206 146.055L105.409 143.3H110.025L111.514 138.908Z" fill="white"></path><path d="M137.568 138.908L138.983 143.3H143.672L139.876 146.055L141.29 150.447L137.568 147.692L133.846 150.447L135.261 146.055L131.538 143.3H136.154L137.568 138.908Z" fill="white"></path><path d="M204.194 64.8387H150V49.0571C169.95 49.0571 188.561 54.8635 204.194 64.8387Z" fill="#D81228"></path><path d="M235.459 96.2531H150V80.4715H223.176C227.792 85.3102 231.886 90.5955 235.459 96.2531Z" fill="#D81228"></path><path d="M248.337 127.072H150V111.29H243.201C245.36 116.352 247.072 121.638 248.337 127.072Z" fill="#D81228"></path><path d="M250.943 150C250.943 152.605 250.868 155.211 250.645 157.816H150V142.035H250.571C250.794 144.64 250.943 147.32 250.943 150Z" fill="#D81228"></path><path d="M248.337 172.779C247.072 178.213 245.36 183.499 243.275 188.561H56.7245C54.6401 183.499 52.928 178.213 51.6625 172.779H248.337Z" fill="#D81228"></path><path d="M235.31 203.97C231.737 209.628 227.568 214.913 222.953 219.752H77.0471C72.4318 214.913 68.263 209.628 64.6898 203.97H235.31Z" fill="#D81228"></path><path d="M204.194 235.161C188.561 245.136 169.95 250.943 150 250.943C130.05 250.943 111.439 245.136 95.8064 235.161H204.194Z" fill="#D81228"></path><path d="M38.7841 132.804L21.9603 121.042L23.3747 115.31L43.7717 112.779L42.3573 118.437L38.0397 119.032L36.6253 124.615L40.1985 127.146L38.7841 132.804ZM32.9033 122.903L33.9454 118.734L27.9901 119.479L32.9033 122.903Z" fill="#383572"></path><path d="M44.2184 111.663L26.7991 103.548L29.1068 98.6352L39.9753 98.4864L33.2011 90.0744L35.5088 85.1613L52.8537 93.2754L50.4715 98.3375L41.7619 94.2432L46.1539 99.6774L44.8884 102.432L37.8909 102.581L46.6006 106.675L44.2184 111.663Z" fill="#383572"></path><path d="M54.0447 91.7122L38.2631 80.7692L46.5261 68.8586L50.0248 71.3151L44.9628 78.6849L47.4938 80.4715L51.9603 74.0695L55.5335 76.5261L51.067 82.928L53.598 84.7146L58.6601 77.3449L62.1588 79.8015L54.0447 91.7122Z" fill="#383572"></path><path d="M62.9777 78.9826L49.0571 65.8065L55.9058 58.5856C56.9479 57.469 58.0646 56.7246 59.1812 56.3524C60.2978 56.0546 61.4145 56.0546 62.4566 56.3524C63.5733 56.7246 64.541 57.3201 65.5832 58.2878C66.5509 59.1811 67.1465 60.2233 67.3698 61.34C67.5931 62.4566 67.5931 63.6476 67.2209 64.7643C67.5187 64.7643 67.8164 64.7643 68.0398 64.7643C68.3375 64.8387 68.7097 64.9132 69.1564 65.062L74.2929 66.9231L70.273 71.1663L65.5087 69.4541C65.1365 69.3052 64.8388 69.3052 64.541 69.3797C64.2432 69.4541 64.0199 69.603 63.7221 69.9007L62.6055 71.0174L66.6998 74.8883L62.9777 78.9826ZM59.6278 68.1141L61.6378 65.9553C62.2333 65.3598 62.4566 64.7643 62.4566 64.1687C62.4566 63.5732 62.1589 62.9777 61.5633 62.4566C60.3723 61.2655 59.1812 61.2655 58.0646 62.4566L55.9058 64.7643L59.6278 68.1141Z" fill="#383572"></path><path d="M75.9306 65.9553L63.5732 51.2159L67.8909 47.6427L80.2482 62.3077L75.9306 65.9553Z" fill="#383572"></path><path d="M90.2978 55.4591C87.3946 57.3945 84.7147 58.139 82.2581 57.6923C79.8015 57.2457 77.7172 55.7568 76.005 53.1514C74.2184 50.4715 73.6229 47.9404 74.144 45.4839C74.6651 43.1017 76.4517 40.8685 79.3549 38.933C80.3226 38.263 81.2904 37.7419 82.1837 37.3697C83.077 36.9975 83.9703 36.6998 84.8636 36.4764L87.5435 40.5707C85.6824 40.8685 83.9703 41.6129 82.3326 42.6551C80.8437 43.6228 79.9504 44.7395 79.6527 45.9305C79.3549 47.1216 79.7271 48.4615 80.7693 49.9504C81.737 51.4392 82.8536 52.2581 84.0447 52.4069C85.2358 52.5558 86.5757 52.1092 88.0646 51.1414C88.8834 50.6203 89.5534 50.0248 90.2234 49.3548C90.8933 48.6849 91.4889 48.0149 92.01 47.196L94.6899 51.2903C94.1688 52.0347 93.4988 52.7047 92.8288 53.3747C92.1589 54.1935 91.34 54.8635 90.2978 55.4591Z" fill="#383572"></path><path d="M95.0621 51.8114L94.0199 31.2655L99.4541 28.8834L113.896 43.3995L108.536 45.7816L105.409 42.7295L100.124 45.1117L100.347 49.5037L95.0621 51.8114ZM99.2308 41.0918L103.176 39.3797L98.933 35.1365L99.2308 41.0918Z" fill="#383572"></path><path d="M115.161 43.1017L110.695 24.4913L115.31 23.3747L124.69 31.5633L122.308 21.6625L127.742 20.3226L132.208 38.933L127.519 40.0496L118.139 31.861L120.521 41.6873L115.161 43.1017Z" fill="#383572"></path><path d="M139.28 38.1141L146.352 18.8337L152.308 18.7593L159.975 37.8164L154.169 37.8908L152.531 33.871L146.725 33.9454L145.236 38.0397L139.28 38.1141ZM147.32 29.9256L151.638 29.8511L149.404 24.268L147.32 29.9256Z" fill="#383572"></path><path d="M171.29 45.1117C169.28 44.7395 167.94 44.1439 167.271 43.1762C166.601 42.2084 166.377 40.9429 166.601 39.3052C164.144 38.5608 162.432 37.3697 161.39 35.5831C160.347 33.7965 160.124 31.4144 160.571 28.4367C160.943 26.0546 161.687 24.268 162.655 22.928C163.623 21.5881 164.888 20.7692 166.452 20.3226C168.015 19.8759 169.802 19.8759 171.886 20.2481C173.97 20.6203 175.682 21.2159 177.022 22.1092C178.362 23.0025 179.256 24.268 179.777 25.8313C180.298 27.3945 180.298 29.33 179.926 31.7122C179.405 34.6898 178.437 36.7742 176.873 38.1141C175.31 39.4541 173.375 40.0496 170.918 39.9752C170.844 40.5707 170.844 41.0174 171.067 41.2407C171.29 41.464 171.588 41.6129 172.109 41.6873C172.407 41.7618 172.705 41.7618 173.077 41.7618C173.375 41.7618 173.747 41.7618 174.045 41.6873L173.449 45.1117C173.151 45.1117 172.779 45.1861 172.407 45.1117C171.96 45.2605 171.588 45.1861 171.29 45.1117ZM169.429 35.1365C170.844 35.3598 171.96 35.1365 172.705 34.4665C173.449 33.7965 173.97 32.531 174.268 30.8189C174.566 28.9578 174.491 27.6179 173.97 26.7246C173.449 25.8313 172.481 25.3102 171.067 25.0124C169.653 24.7891 168.536 25.0124 167.792 25.6824C167.047 26.3524 166.452 27.6179 166.154 29.4789C165.856 31.1911 165.931 32.531 166.452 33.4243C166.973 34.3176 168.015 34.8387 169.429 35.1365Z" fill="#383572"></path><path d="M187.816 44.8139C186.104 44.2184 184.764 43.3995 183.648 42.3573C182.531 41.3151 181.861 40.1985 181.489 38.8586C181.117 37.5186 181.266 36.1042 181.787 34.4665L185.806 23.3747L191.092 25.2357L187.295 35.8064C186.476 38.0397 187.221 39.5285 189.38 40.2729C190.422 40.6452 191.315 40.6452 192.06 40.3474C192.804 39.9752 193.4 39.3052 193.772 38.1886L197.568 27.6179L202.854 29.4789L198.834 40.5707C198.238 42.134 197.419 43.3251 196.303 44.1439C195.186 44.9628 193.921 45.4094 192.432 45.4839C191.092 45.7072 189.529 45.4094 187.816 44.8139Z" fill="#383572"></path><path d="M196.303 47.4194L212.159 34.3921L217.295 37.2953L214.243 57.6179L209.181 54.7146L209.777 50.397L204.789 47.5682L201.365 50.3226L196.303 47.4194ZM207.395 44.4417L211.117 46.5261L212.01 40.5707L207.395 44.4417Z" fill="#383572"></path><path d="M215.136 58.5856L227.196 43.6973L238.437 52.7792L235.831 56.0546L228.983 50.5459L226.898 53.1514L232.854 57.9901L230.174 61.2655L224.218 56.4268L219.529 62.2332L215.136 58.5856Z" fill="#383572"></path><path d="M225.335 66.4764L244.392 58.8834L248.412 63.201L239.33 81.5881L235.385 77.2705L237.32 73.3251L233.375 69.0819L229.28 70.7196L225.335 66.4764ZM236.873 66.9231L239.777 70.0496L242.457 64.6898L236.873 66.9231Z" fill="#383572"></path><path d="M240 82.7792L256.154 72.4318L261.514 80.8437C262.333 82.1836 262.779 83.3747 262.854 84.5658C262.928 85.7568 262.63 86.799 262.035 87.7668C261.439 88.7345 260.546 89.5534 259.429 90.2978C258.313 90.9677 257.196 91.34 256.005 91.34C254.814 91.34 253.772 91.0422 252.73 90.3722C252.73 90.67 252.655 90.8933 252.506 91.1911C252.357 91.4888 252.208 91.7866 251.911 92.2333L248.859 96.7742L245.732 91.861L248.486 87.6923C248.71 87.3945 248.784 87.0968 248.784 86.799C248.784 86.5012 248.71 86.2035 248.412 85.8313L247.593 84.4913L242.903 87.5434L240 82.7792ZM251.315 82.1092L252.878 84.5658C253.325 85.2357 253.846 85.6824 254.442 85.8313C255.037 85.9802 255.707 85.8313 256.377 85.3846C257.792 84.4913 258.089 83.3747 257.196 82.0347L255.484 79.4293L251.315 82.1092Z" fill="#383572"></path><path d="M249.752 97.9653L267.469 90.67L269.553 95.732L262.333 103.846L273.127 104.516L275.211 109.504L257.494 116.799L255.335 111.588L264.268 107.94L257.271 107.494L256.154 104.739L260.844 99.4541L251.985 103.102L249.752 97.9653Z" fill="#383572"></path><path d="M258.908 124.839C258.61 123.573 258.462 122.382 258.387 121.191C258.313 120 258.387 119.032 258.61 118.139L263.151 117.097C262.928 118.065 262.854 119.107 262.779 120.223C262.779 121.34 262.854 122.382 263.077 123.275C263.3 124.243 263.524 124.988 263.821 125.434C264.119 125.881 264.491 126.03 265.087 125.955C265.459 125.881 265.757 125.658 265.98 125.285C266.129 124.988 266.278 124.466 266.352 123.871C266.427 123.201 266.501 122.382 266.576 121.414C266.725 120.074 266.948 118.958 267.246 118.139C267.543 117.32 268.065 116.65 268.66 116.129C269.256 115.682 270.074 115.31 271.117 115.087C272.978 114.64 274.467 115.012 275.732 116.129C276.998 117.246 277.891 119.032 278.486 121.638C278.71 122.68 278.859 123.722 278.933 124.913C279.007 126.03 279.007 126.998 278.933 127.667L274.392 128.71C274.541 127.742 274.615 126.774 274.615 125.955C274.615 125.136 274.467 124.318 274.318 123.573C274.094 122.754 273.871 122.01 273.648 121.414C273.35 120.819 272.978 120.596 272.382 120.744C271.861 120.819 271.638 121.191 271.489 121.787C271.414 122.382 271.266 123.35 271.266 124.69C271.191 126.328 270.968 127.593 270.596 128.486C270.223 129.454 269.628 130.124 268.958 130.571C268.288 131.017 267.395 131.39 266.427 131.613C264.715 131.985 263.226 131.613 261.886 130.571C260.472 129.38 259.504 127.519 258.908 124.839Z" fill="#383572"></path><path d="M61.2655 249.901L72.8784 234.64L77.196 237.916L75.1117 248.561L84.7891 243.648L89.1067 246.923L77.4938 262.184L73.0273 258.759L78.8337 251.166L72.5806 254.367L70.1985 252.581L71.5385 245.658L65.732 253.251L61.2655 249.901Z" fill="#383572"></path><path d="M81.2903 264.64L96.4764 250.794L101.762 253.474L99.7518 273.945L94.5409 271.34L94.9131 266.948L89.7766 264.342L86.5756 267.32L81.2903 264.64ZM92.1588 261.067L96.0297 263.002L96.6253 257.047L92.1588 261.067Z" fill="#383572"></path><path d="M103.772 275.36L109.206 256.973L117.395 259.429C119.256 260.025 120.819 260.769 121.936 261.811C123.052 262.854 123.797 264.119 124.094 265.682C124.392 267.246 124.243 269.181 123.573 271.414C122.605 274.541 121.191 276.625 119.181 277.667C117.246 278.635 114.789 278.71 111.886 277.891L103.772 275.36ZM110.397 272.829L112.556 273.499C113.449 273.797 114.268 273.871 114.938 273.797C115.608 273.722 116.203 273.35 116.799 272.754C117.32 272.159 117.767 271.117 118.213 269.777C118.66 268.437 118.809 267.32 118.735 266.427C118.66 265.608 118.362 264.938 117.841 264.491C117.32 264.045 116.576 263.672 115.608 263.375L113.449 262.705L110.397 272.829Z" fill="#383572"></path><path d="M124.913 281.092L127.519 262.109L141.886 264.119L141.29 268.362L132.432 267.171L131.985 270.298L139.727 271.34L139.131 275.658L131.39 274.615L130.943 277.742L139.801 278.933L139.206 283.176L124.913 281.092Z" fill="#383572"></path><path d="M149.107 283.251L148.809 264.045L154.392 263.97L154.69 283.176L149.107 283.251Z" fill="#383572"></path><path d="M158.784 283.251L156.328 264.268L161.017 263.672L169.504 272.829L168.164 262.779L173.747 262.035L176.278 281.017L171.514 281.613L163.027 272.457L164.367 282.506L158.784 283.251Z" fill="#383572"></path><path d="M196.005 275.434C194.293 276.03 192.729 276.328 191.241 276.253C189.752 276.179 188.486 275.732 187.37 274.913C186.253 274.094 185.434 272.903 184.839 271.34L180.744 260.248L186.03 258.313L189.901 268.809C190.72 271.042 192.208 271.712 194.367 270.893C195.409 270.521 196.079 269.926 196.452 269.181C196.824 268.437 196.824 267.469 196.377 266.352L192.506 255.856L197.792 253.921L201.886 265.012C202.481 266.576 202.556 268.065 202.258 269.33C201.96 270.67 201.216 271.861 200.174 272.829C199.057 273.945 197.717 274.764 196.005 275.434Z" fill="#383572"></path><path d="M214.02 267.246C212.903 267.841 211.787 268.362 210.67 268.734C209.553 269.107 208.586 269.33 207.692 269.404L205.459 265.385C206.427 265.31 207.469 265.161 208.586 264.864C209.702 264.566 210.595 264.194 211.489 263.747C212.382 263.3 212.978 262.854 213.35 262.407C213.722 262.035 213.722 261.588 213.424 261.067C213.201 260.695 212.903 260.471 212.605 260.397C212.233 260.323 211.712 260.323 211.117 260.471C210.521 260.62 209.702 260.769 208.66 260.993C207.32 261.216 206.203 261.365 205.31 261.29C204.417 261.216 203.672 260.918 203.002 260.471C202.332 260.025 201.811 259.355 201.29 258.387C200.397 256.749 200.248 255.186 200.993 253.623C201.662 252.134 203.226 250.72 205.533 249.454C206.427 248.933 207.469 248.486 208.511 248.114C209.553 247.742 210.447 247.444 211.191 247.295L213.424 251.39C212.457 251.538 211.489 251.687 210.67 251.985C209.851 252.283 209.107 252.581 208.437 252.953C207.692 253.399 207.022 253.772 206.576 254.218C206.129 254.665 205.98 255.112 206.278 255.633C206.501 256.079 206.948 256.228 207.469 256.228C208.064 256.154 209.032 256.005 210.372 255.633C211.935 255.261 213.201 255.112 214.243 255.186C215.285 255.335 216.104 255.633 216.7 256.154C217.37 256.675 217.891 257.419 218.412 258.238C219.231 259.801 219.38 261.29 218.71 262.928C217.965 264.417 216.476 265.906 214.02 267.246Z" fill="#383572"></path><path d="M222.878 262.035L217.072 242.308L221.762 238.734L239.256 249.454L234.64 253.027L230.918 250.794L226.303 254.293L227.568 258.462L222.878 262.035ZM224.367 250.645L227.792 248.04L222.655 244.913L224.367 250.645Z" fill="#383572"></path><path d="M150 300C67.2953 300 0 232.705 0 150C0 67.2953 67.2953 0 150 0C232.705 0 300 67.2953 300 150C300 232.705 232.705 300 150 300ZM150 7.44417C71.3896 7.44417 7.44417 71.3896 7.44417 150C7.44417 228.61 71.3896 292.556 150 292.556C228.61 292.556 292.556 228.61 292.556 150C292.556 71.3896 228.61 7.44417 150 7.44417Z" fill="#383572"></path><path d="M59.7767 237.171C37.072 213.648 24.5658 182.68 24.5658 150C24.5658 145.682 24.7891 141.29 25.2358 137.047L31.1911 137.643C30.7445 141.737 30.5956 145.831 30.5956 150C30.5956 181.117 42.5062 210.596 64.0943 233.002L59.7767 237.171Z" fill="#D81228"></path><path d="M237.692 239.777L233.524 235.534C256.749 212.829 269.553 182.531 269.553 150.074C269.553 146.055 269.33 142.035 268.958 138.164L274.913 137.568C275.285 141.663 275.509 145.906 275.509 150.074C275.434 184.094 262.035 215.955 237.692 239.777Z" fill="#D81228"></path></svg>