{
	"asset":{
		"version":"2.0",
		"generator":"Created using the official Cinema 4D glTF Exporter 1.000x284978"
	},
	"scenes":[{
		"nodes":[0]
	}],
	"nodes":[{
		"name":"Phisycal Egg",
		"translation":[-13.367256164550782,
		-5.074737548828125,
		-1.9879947900772095],
		"children":[1,
		9],
		"rotation":[-3.0531133177191807e-16,
		-1.6653345369377349e-16,
		5.084455053182303e-32,
		-1.0],
		"scale":[1.0,
		1.0,
		1.0]
	},
	{
		"name":"Root",
		"translation":[-13.367256164550782,
		-5.074737548828125,
		-1.9879947900772095],
		"children":[2],
		"rotation":[0.0,
		0.0,
		0.0,
		-1.0],
		"scale":[1.0,
		1.0,
		1.0]
	},
	{
		"name":"Joint.2",
		"translation":[0.0,
		0.0,
		0.0],
		"children":[3],
		"rotation":[0.3290063738822937,
		-0.9051815867424011,
		-0.09191718697547913,
		0.25288793444633486],
		"scale":[1.0,
		1.0,
		1.0]
	},
	{
		"name":"Joint.3",
		"translation":[-1.0658141036401503e-14,
		0.0,
		-34.354522705078128],
		"children":[4],
		"rotation":[-0.014644344337284565,
		-0.4603031575679779,
		0.03975367918610573,
		-0.886750340461731],
		"scale":[1.0,
		1.0,
		1.0]
	},
	{
		"name":"Joint.4",
		"translation":[4.263256414560601e-14,
		-40.55915451049805,
		-38.38712692260742],
		"children":[5],
		"rotation":[0.0,
		-0.1882791817188263,
		0.0,
		-0.9821155667304993],
		"scale":[1.0,
		1.0,
		1.0]
	},
	{
		"name":"Joint.5",
		"translation":[-7.105427357601002e-15,
		-2.9345126152038576,
		-32.00181198120117],
		"children":[6],
		"rotation":[0.0,
		-0.18950067460536958,
		0.0,
		-0.9818806052207947],
		"scale":[1.0,
		1.0,
		1.0]
	},
	{
		"name":"Joint.6",
		"translation":[0.0,
		6.707457065582275,
		-23.43368148803711],
		"children":[7],
		"rotation":[2.853267844216134e-9,
		-0.27079299092292788,
		1.0143034856469058e-8,
		-0.9626376032829285],
		"scale":[1.0,
		1.0,
		1.0]
	},
	{
		"name":"Joint.7",
		"translation":[2.281708002090454,
		37.939056396484378,
		-24.848907470703126],
		"children":[8],
		"rotation":[0.0,
		-0.42332419753074648,
		0.0,
		-0.905978262424469],
		"scale":[1.0,
		1.0,
		1.0]
	},
	{
		"name":"Joint.8",
		"translation":[-1.3322676295501879e-14,
		13.205306053161621,
		-28.196533203125],
		"rotation":[0.0,
		-5.665538686387998e-16,
		0.0,
		1.0],
		"scale":[1.0,
		1.0,
		1.0]
	},
	{
		"name":"Salmon Egg",
		"translation":[13.367256164550782,
		5.074737548828125,
		1.9879947900772095],
		"children":[10,
		25],
		"rotation":[4.440892098500626e-16,
		0.0,
		0.0,
		-1.0],
		"scale":[1.0,
		1.0,
		1.0]
	},
	{
		"name":"Sphere.1",
		"translation":[0.0,
		0.0,
		0.0],
		"children":[11],
		"rotation":[0.0,
		0.0,
		0.0,
		-1.0],
		"scale":[1.0,
		1.0,
		1.0],
		"mesh":0
	},
	{
		"name":"Sphere.1",
		"children":[12]
	},
	{
		"name":"Fry",
		"translation":[8.761289596557618,
		-10.14947509765625,
		-8.245806694030762],
		"children":[13,
		15,
		17,
		19,
		21,
		23],
		"rotation":[0.20014895498752595,
		0.18477585911750794,
		0.00863067340105772,
		0.9621453881263733],
		"scale":[1.0,
		1.0,
		1.0]
	},
	{
		"name":"Fry-Fish",
		"children":[14]
	},
	{
		"name":"Fry-Fish",
		"mesh":1,
		"skin":0
	},
	{
		"name":"Fry-Fish",
		"children":[16]
	},
	{
		"name":"Fry-Fish",
		"mesh":2,
		"skin":1
	},
	{
		"name":"Fry-Fish",
		"children":[18]
	},
	{
		"name":"Fry-Fish",
		"mesh":3,
		"skin":2
	},
	{
		"name":"Fry-eye_gold",
		"children":[20]
	},
	{
		"name":"Fry-eye_gold",
		"mesh":4,
		"skin":3
	},
	{
		"name":"Fry-Mat.4",
		"children":[22]
	},
	{
		"name":"Fry-Mat.4",
		"mesh":5,
		"skin":4
	},
	{
		"name":"Fry-Fish",
		"children":[24]
	},
	{
		"name":"Fry-Fish",
		"mesh":6,
		"skin":5
	},
	{
		"name":"Sphere.1",
		"translation":[0.0,
		0.0,
		0.0],
		"children":[26],
		"rotation":[0.0,
		0.0,
		0.0,
		-1.0],
		"scale":[1.0,
		1.0,
		1.0]
	},
	{
		"name":"Sphere.1"
	}],
	"meshes":[{
		"name":"Sphere.1",
		"primitives":[{
			"attributes":{
				"POSITION":7,
				"NORMAL":8,
				"TEXCOORD_0":9
			},
			"indices":6,
			"material":0
		}]
	},
	{
		"name":"Fry-Fish",
		"primitives":[{
			"attributes":{
				"POSITION":11,
				"NORMAL":12,
				"JOINTS_0":13,
				"WEIGHTS_0":14
			},
			"indices":10,
			"material":1
		}]
	},
	{
		"name":"Fry-Fish",
		"primitives":[{
			"attributes":{
				"POSITION":16,
				"NORMAL":17,
				"JOINTS_0":18,
				"WEIGHTS_0":19
			},
			"indices":15,
			"material":1
		}]
	},
	{
		"name":"Fry-Fish",
		"primitives":[{
			"attributes":{
				"POSITION":21,
				"NORMAL":22,
				"JOINTS_0":23,
				"WEIGHTS_0":24
			},
			"indices":20,
			"material":1
		}]
	},
	{
		"name":"Fry-eye_gold",
		"primitives":[{
			"attributes":{
				"POSITION":26,
				"NORMAL":27,
				"JOINTS_0":28,
				"WEIGHTS_0":29
			},
			"indices":25,
			"material":2
		}]
	},
	{
		"name":"Fry-Mat.4",
		"primitives":[{
			"attributes":{
				"POSITION":31,
				"NORMAL":32,
				"JOINTS_0":33,
				"WEIGHTS_0":34
			},
			"indices":30,
			"material":3
		}]
	},
	{
		"name":"Fry-Fish",
		"primitives":[{
			"attributes":{
				"POSITION":36,
				"NORMAL":37,
				"JOINTS_0":38,
				"WEIGHTS_0":39
			},
			"indices":35,
			"material":1
		}]
	}],
	"animations":[{
		"samplers":[{
			"input":0,
			"interpolation":"LINEAR",
			"output":1
		},
		{
			"input":2,
			"interpolation":"LINEAR",
			"output":3
		},
		{
			"input":4,
			"interpolation":"LINEAR",
			"output":5
		},
		{
			"input":40,
			"interpolation":"LINEAR",
			"output":41
		}],
		"channels":[{
			"sampler":0,
			"target":{
				"node":2,
				"path":"rotation"
			}
		},
		{
			"sampler":1,
			"target":{
				"node":3,
				"path":"rotation"
			}
		},
		{
			"sampler":2,
			"target":{
				"node":4,
				"path":"rotation"
			}
		},
		{
			"sampler":3,
			"target":{
				"node":26,
				"path":"rotation"
			}
		}]
	}],
	"skins":[{
		"inverseBindMatrices":42,
		"joints":[2,
		3,
		4,
		5,
		6,
		7,
		8]
	},
	{
		"inverseBindMatrices":43,
		"joints":[2,
		3,
		4,
		5,
		6,
		7,
		8]
	},
	{
		"inverseBindMatrices":44,
		"joints":[2,
		3,
		4,
		5,
		6,
		7,
		8]
	},
	{
		"inverseBindMatrices":45,
		"joints":[2,
		3,
		4,
		5,
		6,
		7,
		8]
	},
	{
		"inverseBindMatrices":46,
		"joints":[2,
		3,
		4,
		5,
		6,
		7,
		8]
	},
	{
		"inverseBindMatrices":47,
		"joints":[2,
		3,
		4,
		5,
		6,
		7,
		8]
	}],
	"accessors":[{
		"bufferView":0,
		"byteOffset":0,
		"type":"SCALAR",
		"componentType":5126,
		"count":302,
		"min":[0.0],
		"max":[10.033333778381348]
	},
	{
		"bufferView":0,
		"byteOffset":1208,
		"type":"VEC4",
		"componentType":5126,
		"count":302,
		"min":[0.17276237905025483,
		-0.9474977850914002,
		-0.09191718697547913,
		0.25288793444633486],
		"max":[0.3290063738822937,
		-0.9051815867424011,
		-0.048266030848026279,
		0.2647101581096649]
	},
	{
		"bufferView":1,
		"byteOffset":0,
		"type":"SCALAR",
		"componentType":5126,
		"count":302,
		"min":[0.0],
		"max":[10.033333778381348]
	},
	{
		"bufferView":1,
		"byteOffset":1208,
		"type":"VEC4",
		"componentType":5126,
		"count":302,
		"min":[-0.0250644963234663,
		-0.4603031575679779,
		-0.011204717680811882,
		-0.9075407385826111],
		"max":[0.041627611964941028,
		0.41730040311813357,
		0.19317588210105897,
		0.9747987389564514]
	},
	{
		"bufferView":2,
		"byteOffset":0,
		"type":"SCALAR",
		"componentType":5126,
		"count":302,
		"min":[0.0],
		"max":[10.033333778381348]
	},
	{
		"bufferView":2,
		"byteOffset":1208,
		"type":"VEC4",
		"componentType":5126,
		"count":302,
		"min":[-0.102686308324337,
		-0.5796599984169006,
		0.0,
		-0.9821155667304993],
		"max":[0.0,
		-0.1882791817188263,
		0.07394424825906754,
		-0.804973304271698]
	},
	{
		"bufferView":3,
		"byteOffset":0,
		"type":"SCALAR",
		"componentType":5123,
		"count":29400,
		"min":[0],
		"max":[5146]
	},
	{
		"bufferView":4,
		"byteOffset":0,
		"type":"VEC3",
		"componentType":5126,
		"count":5147,
		"min":[-95.75897216796875,
		-96.112548828125,
		-95.75878143310547],
		"max":[95.75897216796875,
		96.112548828125,
		95.75878143310547]
	},
	{
		"bufferView":4,
		"byteOffset":12,
		"type":"VEC3",
		"componentType":5126,
		"count":5147,
		"min":[-1.0,
		-1.0,
		-1.0],
		"max":[1.0,
		1.0,
		1.0]
	},
	{
		"bufferView":4,
		"byteOffset":24,
		"type":"VEC2",
		"componentType":5126,
		"count":5147,
		"min":[0.0,
		0.25],
		"max":[25.0,
		24.75]
	},
	{
		"bufferView":5,
		"byteOffset":0,
		"type":"SCALAR",
		"componentType":5123,
		"count":2304,
		"min":[0],
		"max":[522]
	},
	{
		"bufferView":6,
		"byteOffset":0,
		"type":"VEC3",
		"componentType":5126,
		"count":523,
		"min":[-41.279876708984378,
		-44.62285232543945,
		-34.25138854980469],
		"max":[10.549650192260743,
		5.8568501472473148,
		33.42119598388672]
	},
	{
		"bufferView":6,
		"byteOffset":12,
		"type":"VEC3",
		"componentType":5126,
		"count":523,
		"min":[-0.985049307346344,
		-0.9994127154350281,
		-0.9884538054466248],
		"max":[0.9997692108154297,
		0.9998035430908203,
		0.9694018363952637]
	},
	{
		"bufferView":7,
		"byteOffset":0,
		"type":"VEC4",
		"componentType":5123,
		"count":523,
		"min":[1,
		0,
		0,
		3],
		"max":[2,
		2,
		2,
		3]
	},
	{
		"bufferView":8,
		"byteOffset":0,
		"type":"VEC4",
		"componentType":5126,
		"count":523,
		"min":[0.49999237060546877,
		0.0,
		0.0,
		0.0],
		"max":[1.0,
		0.49999237060546877,
		0.0,
		0.0]
	},
	{
		"bufferView":9,
		"byteOffset":0,
		"type":"SCALAR",
		"componentType":5123,
		"count":2880,
		"min":[0],
		"max":[589]
	},
	{
		"bufferView":10,
		"byteOffset":0,
		"type":"VEC3",
		"componentType":5126,
		"count":590,
		"min":[-70.24472045898438,
		-22.279632568359376,
		-83.02899169921875],
		"max":[-23.312599182128908,
		24.061458587646486,
		-41.04351806640625]
	},
	{
		"bufferView":10,
		"byteOffset":12,
		"type":"VEC3",
		"componentType":5126,
		"count":590,
		"min":[-0.9828557372093201,
		-0.9829803705215454,
		-0.9951128959655762],
		"max":[0.9962462782859802,
		0.9779026508331299,
		0.9345135688781738]
	},
	{
		"bufferView":11,
		"byteOffset":0,
		"type":"VEC4",
		"componentType":5123,
		"count":590,
		"min":[1,
		0,
		2,
		3],
		"max":[1,
		0,
		2,
		3]
	},
	{
		"bufferView":12,
		"byteOffset":0,
		"type":"VEC4",
		"componentType":5126,
		"count":590,
		"min":[1.0,
		0.0,
		0.0,
		0.0],
		"max":[1.0,
		0.0,
		0.0,
		0.0]
	},
	{
		"bufferView":13,
		"byteOffset":0,
		"type":"SCALAR",
		"componentType":5123,
		"count":12144,
		"min":[0],
		"max":[2382]
	},
	{
		"bufferView":14,
		"byteOffset":0,
		"type":"VEC3",
		"componentType":5126,
		"count":2383,
		"min":[-84.38362121582031,
		-49.71357727050781,
		-83.02899169921875],
		"max":[71.7072525024414,
		99.52139282226563,
		59.12541961669922]
	},
	{
		"bufferView":14,
		"byteOffset":12,
		"type":"VEC3",
		"componentType":5126,
		"count":2383,
		"min":[-0.9991956949234009,
		-0.9997517466545105,
		-0.9979334473609924],
		"max":[0.9989320039749146,
		0.998281717300415,
		0.9999398589134216]
	},
	{
		"bufferView":15,
		"byteOffset":0,
		"type":"VEC4",
		"componentType":5123,
		"count":2383,
		"min":[1,
		0,
		0,
		0],
		"max":[6,
		6,
		4,
		3]
	},
	{
		"bufferView":16,
		"byteOffset":0,
		"type":"VEC4",
		"componentType":5126,
		"count":2383,
		"min":[0.49999237060546877,
		0.0,
		0.0,
		0.0],
		"max":[1.0,
		0.49999237060546877,
		0.16665904223918916,
		0.0]
	},
	{
		"bufferView":17,
		"byteOffset":0,
		"type":"SCALAR",
		"componentType":5123,
		"count":768,
		"min":[0],
		"max":[177]
	},
	{
		"bufferView":18,
		"byteOffset":0,
		"type":"VEC3",
		"componentType":5126,
		"count":178,
		"min":[-85.77040100097656,
		-4.38821268081665,
		-49.29681396484375],
		"max":[-22.175338745117189,
		53.81983184814453,
		-6.524616241455078]
	},
	{
		"bufferView":18,
		"byteOffset":12,
		"type":"VEC3",
		"componentType":5126,
		"count":178,
		"min":[-0.9931454658508301,
		-0.9939891695976257,
		-0.9889149069786072],
		"max":[0.9920200705528259,
		0.9941747784614563,
		0.9812159538269043]
	},
	{
		"bufferView":19,
		"byteOffset":0,
		"type":"VEC4",
		"componentType":5123,
		"count":178,
		"min":[1,
		0,
		2,
		3],
		"max":[1,
		0,
		2,
		3]
	},
	{
		"bufferView":20,
		"byteOffset":0,
		"type":"VEC4",
		"componentType":5126,
		"count":178,
		"min":[1.0,
		0.0,
		0.0,
		0.0],
		"max":[1.0,
		0.0,
		0.0,
		0.0]
	},
	{
		"bufferView":21,
		"byteOffset":0,
		"type":"SCALAR",
		"componentType":5123,
		"count":2304,
		"min":[0],
		"max":[520]
	},
	{
		"bufferView":22,
		"byteOffset":0,
		"type":"VEC3",
		"componentType":5126,
		"count":521,
		"min":[-85.28294372558594,
		-8.203542709350586,
		-52.07158279418945],
		"max":[-18.77859878540039,
		55.05315017700195,
		-4.6048054695129398]
	},
	{
		"bufferView":22,
		"byteOffset":12,
		"type":"VEC3",
		"componentType":5126,
		"count":521,
		"min":[-0.9993610978126526,
		-0.9939435720443726,
		-0.9991167187690735],
		"max":[0.9895288944244385,
		0.9991129040718079,
		0.9995925426483154]
	},
	{
		"bufferView":23,
		"byteOffset":0,
		"type":"VEC4",
		"componentType":5123,
		"count":521,
		"min":[1,
		0,
		2,
		3],
		"max":[1,
		0,
		2,
		3]
	},
	{
		"bufferView":24,
		"byteOffset":0,
		"type":"VEC4",
		"componentType":5126,
		"count":521,
		"min":[1.0,
		0.0,
		0.0,
		0.0],
		"max":[1.0,
		0.0,
		0.0,
		0.0]
	},
	{
		"bufferView":25,
		"byteOffset":0,
		"type":"SCALAR",
		"componentType":5123,
		"count":69936,
		"min":[0],
		"max":[17104]
	},
	{
		"bufferView":26,
		"byteOffset":0,
		"type":"VEC3",
		"componentType":5126,
		"count":17105,
		"min":[-54.449493408203128,
		-30.0981502532959,
		-38.387001037597659],
		"max":[69.79243469238281,
		96.0811767578125,
		46.237247467041019]
	},
	{
		"bufferView":26,
		"byteOffset":12,
		"type":"VEC3",
		"componentType":5126,
		"count":17105,
		"min":[-1.0,
		-1.0,
		-1.0],
		"max":[1.0,
		1.0,
		1.0]
	},
	{
		"bufferView":27,
		"byteOffset":0,
		"type":"VEC4",
		"componentType":5123,
		"count":17105,
		"min":[1,
		0,
		0,
		0],
		"max":[6,
		6,
		4,
		3]
	},
	{
		"bufferView":28,
		"byteOffset":0,
		"type":"VEC4",
		"componentType":5126,
		"count":17105,
		"min":[0.49999237060546877,
		0.0,
		0.0,
		0.0],
		"max":[1.0,
		0.49999237060546877,
		0.0,
		0.0]
	},
	{
		"bufferView":29,
		"byteOffset":0,
		"type":"SCALAR",
		"componentType":5126,
		"count":302,
		"min":[0.0],
		"max":[10.033333778381348]
	},
	{
		"bufferView":29,
		"byteOffset":1208,
		"type":"VEC4",
		"componentType":5126,
		"count":302,
		"min":[0.0,
		0.0,
		0.0,
		-1.0],
		"max":[0.0,
		0.0,
		0.42312341928482058,
		-0.9060720801353455]
	},
	{
		"bufferView":30,
		"byteOffset":0,
		"type":"MAT4",
		"componentType":5126,
		"count":7,
		"min":[-0.8088030815124512,
		-0.6232907176017761,
		-0.7819624543190002,
		0.0,
		-0.4738740026950836,
		0.7639857530593872,
		-0.644873321056366,
		0.0,
		-0.3628573715686798,
		-0.2065420150756836,
		-0.9143628478050232,
		0.0,
		-83.1661148071289,
		-37.50123977661133,
		-31.19789695739746,
		1.0],
		"max":[0.7592797875404358,
		-0.5593019723892212,
		0.1870906949043274,
		0.0,
		0.6172414422035217,
		0.8028210997581482,
		0.3528413772583008,
		0.0,
		0.9758209586143494,
		-0.16683673858642579,
		0.91678786277771,
		0.0,
		-24.9677791595459,
		20.35057830810547,
		31.822566986083986,
		1.0]
	},
	{
		"bufferView":31,
		"byteOffset":0,
		"type":"MAT4",
		"componentType":5126,
		"count":7,
		"min":[-0.8088030815124512,
		-0.6232907176017761,
		-0.7819624543190002,
		0.0,
		-0.4738740026950836,
		0.7639857530593872,
		-0.644873321056366,
		0.0,
		-0.3628573715686798,
		-0.2065420150756836,
		-0.9143628478050232,
		0.0,
		-83.1661148071289,
		-37.50123977661133,
		-31.19789695739746,
		1.0],
		"max":[0.7592797875404358,
		-0.5593019723892212,
		0.1870906949043274,
		0.0,
		0.6172414422035217,
		0.8028210997581482,
		0.3528413772583008,
		0.0,
		0.9758209586143494,
		-0.16683673858642579,
		0.91678786277771,
		0.0,
		-24.9677791595459,
		20.35057830810547,
		31.822566986083986,
		1.0]
	},
	{
		"bufferView":32,
		"byteOffset":0,
		"type":"MAT4",
		"componentType":5126,
		"count":7,
		"min":[-0.8088030815124512,
		-0.6232907176017761,
		-0.7819624543190002,
		0.0,
		-0.4738740026950836,
		0.7639857530593872,
		-0.644873321056366,
		0.0,
		-0.3628573715686798,
		-0.2065420150756836,
		-0.9143628478050232,
		0.0,
		-83.1661148071289,
		-37.50123977661133,
		-31.19789695739746,
		1.0],
		"max":[0.7592797875404358,
		-0.5593019723892212,
		0.1870906949043274,
		0.0,
		0.6172414422035217,
		0.8028210997581482,
		0.3528413772583008,
		0.0,
		0.9758209586143494,
		-0.16683673858642579,
		0.91678786277771,
		0.0,
		-24.9677791595459,
		20.35057830810547,
		31.822566986083986,
		1.0]
	},
	{
		"bufferView":33,
		"byteOffset":0,
		"type":"MAT4",
		"componentType":5126,
		"count":7,
		"min":[-0.8088030815124512,
		-0.6232907176017761,
		-0.7819624543190002,
		0.0,
		-0.4738740026950836,
		0.7639857530593872,
		-0.644873321056366,
		0.0,
		-0.3628573715686798,
		-0.2065420150756836,
		-0.9143628478050232,
		0.0,
		-83.1661148071289,
		-37.50123977661133,
		-31.19789695739746,
		1.0],
		"max":[0.7592797875404358,
		-0.5593019723892212,
		0.1870906949043274,
		0.0,
		0.6172414422035217,
		0.8028210997581482,
		0.3528413772583008,
		0.0,
		0.9758209586143494,
		-0.16683673858642579,
		0.91678786277771,
		0.0,
		-24.9677791595459,
		20.35057830810547,
		31.822566986083986,
		1.0]
	},
	{
		"bufferView":34,
		"byteOffset":0,
		"type":"MAT4",
		"componentType":5126,
		"count":7,
		"min":[-0.8088030815124512,
		-0.6232907176017761,
		-0.7819624543190002,
		0.0,
		-0.4738740026950836,
		0.7639857530593872,
		-0.644873321056366,
		0.0,
		-0.3628573715686798,
		-0.2065420150756836,
		-0.9143628478050232,
		0.0,
		-83.1661148071289,
		-37.50123977661133,
		-31.19789695739746,
		1.0],
		"max":[0.7592797875404358,
		-0.5593019723892212,
		0.1870906949043274,
		0.0,
		0.6172414422035217,
		0.8028210997581482,
		0.3528413772583008,
		0.0,
		0.9758209586143494,
		-0.16683673858642579,
		0.91678786277771,
		0.0,
		-24.9677791595459,
		20.35057830810547,
		31.822566986083986,
		1.0]
	},
	{
		"bufferView":35,
		"byteOffset":0,
		"type":"MAT4",
		"componentType":5126,
		"count":7,
		"min":[-0.8088030815124512,
		-0.6232907176017761,
		-0.7819624543190002,
		0.0,
		-0.4738740026950836,
		0.7639857530593872,
		-0.644873321056366,
		0.0,
		-0.3628573715686798,
		-0.2065420150756836,
		-0.9143628478050232,
		0.0,
		-83.1661148071289,
		-37.50123977661133,
		-31.19789695739746,
		1.0],
		"max":[0.7592797875404358,
		-0.5593019723892212,
		0.1870906949043274,
		0.0,
		0.6172414422035217,
		0.8028210997581482,
		0.3528413772583008,
		0.0,
		0.9758209586143494,
		-0.16683673858642579,
		0.91678786277771,
		0.0,
		-24.9677791595459,
		20.35057830810547,
		31.822566986083986,
		1.0]
	}],
	"bufferViews":[{
		"buffer":0,
		"byteOffset":0,
		"byteLength":6040
	},
	{
		"buffer":1,
		"byteOffset":0,
		"byteLength":6040
	},
	{
		"buffer":2,
		"byteOffset":0,
		"byteLength":6040
	},
	{
		"buffer":3,
		"byteOffset":0,
		"byteLength":58800,
		"target":34963
	},
	{
		"buffer":3,
		"byteOffset":58800,
		"byteStride":32,
		"byteLength":164704,
		"target":34962
	},
	{
		"buffer":4,
		"byteOffset":0,
		"byteLength":4608,
		"target":34963
	},
	{
		"buffer":4,
		"byteOffset":4608,
		"byteStride":24,
		"byteLength":12552,
		"target":34962
	},
	{
		"buffer":4,
		"byteOffset":17160,
		"byteLength":4184,
		"target":34962
	},
	{
		"buffer":4,
		"byteOffset":21344,
		"byteLength":8368,
		"target":34962
	},
	{
		"buffer":5,
		"byteOffset":0,
		"byteLength":5760,
		"target":34963
	},
	{
		"buffer":5,
		"byteOffset":5760,
		"byteStride":24,
		"byteLength":14160,
		"target":34962
	},
	{
		"buffer":5,
		"byteOffset":19920,
		"byteLength":4720,
		"target":34962
	},
	{
		"buffer":5,
		"byteOffset":24640,
		"byteLength":9440,
		"target":34962
	},
	{
		"buffer":6,
		"byteOffset":0,
		"byteLength":24288,
		"target":34963
	},
	{
		"buffer":6,
		"byteOffset":24288,
		"byteStride":24,
		"byteLength":57192,
		"target":34962
	},
	{
		"buffer":6,
		"byteOffset":81480,
		"byteLength":19064,
		"target":34962
	},
	{
		"buffer":6,
		"byteOffset":100544,
		"byteLength":38128,
		"target":34962
	},
	{
		"buffer":7,
		"byteOffset":0,
		"byteLength":1536,
		"target":34963
	},
	{
		"buffer":7,
		"byteOffset":1536,
		"byteStride":24,
		"byteLength":4272,
		"target":34962
	},
	{
		"buffer":7,
		"byteOffset":5808,
		"byteLength":1424,
		"target":34962
	},
	{
		"buffer":7,
		"byteOffset":7232,
		"byteLength":2848,
		"target":34962
	},
	{
		"buffer":8,
		"byteOffset":0,
		"byteLength":4608,
		"target":34963
	},
	{
		"buffer":8,
		"byteOffset":4608,
		"byteStride":24,
		"byteLength":12504,
		"target":34962
	},
	{
		"buffer":8,
		"byteOffset":17112,
		"byteLength":4168,
		"target":34962
	},
	{
		"buffer":8,
		"byteOffset":21280,
		"byteLength":8336,
		"target":34962
	},
	{
		"buffer":9,
		"byteOffset":0,
		"byteLength":139872,
		"target":34963
	},
	{
		"buffer":9,
		"byteOffset":139872,
		"byteStride":24,
		"byteLength":410520,
		"target":34962
	},
	{
		"buffer":9,
		"byteOffset":550392,
		"byteLength":136840,
		"target":34962
	},
	{
		"buffer":9,
		"byteOffset":687232,
		"byteLength":273680,
		"target":34962
	},
	{
		"buffer":10,
		"byteOffset":0,
		"byteLength":6040
	},
	{
		"buffer":11,
		"byteOffset":0,
		"byteLength":448
	},
	{
		"buffer":12,
		"byteOffset":0,
		"byteLength":448
	},
	{
		"buffer":13,
		"byteOffset":0,
		"byteLength":448
	},
	{
		"buffer":14,
		"byteOffset":0,
		"byteLength":448
	},
	{
		"buffer":15,
		"byteOffset":0,
		"byteLength":448
	},
	{
		"buffer":16,
		"byteOffset":0,
		"byteLength":448
	}],
	"buffers":[{
		"uri":"data:application/octet-stream;base64,",
		"byteLength":6040
	},
	{
		"uri":"data:application/octet-stream;base64,",
		"byteLength":6040
	},
	{
		"uri":"data:application/octet-stream;base64,",
		"byteLength":6040
	},
	{
		"uri":"data:application/octet-stream;base64,",
		"byteLength":223504
	},
	{
		"uri":"data:application/octet-stream;base64,",
		"byteLength":29712
	},
	{
		"uri":"data:application/octet-stream;base64,",
		"byteLength":34080
	},
	{
		"uri":"data:application/octet-stream;base64,",
		"byteLength":138672
	},
	{
		"uri":"data:application/octet-stream;base64,",
		"byteLength":10080
	},
	{
		"uri":"data:application/octet-stream;base64,",
		"byteLength":29616
	},
	{
		"uri":"data:application/octet-stream;base64,",
		"byteLength":960912
	},
	{
		"uri":"data:application/octet-stream;base64,",
		"byteLength":6040
	},
	{
		"uri":"data:application/octet-stream;base64,",
		"byteLength":448
	},
	{
		"uri":"data:application/octet-stream;base64,",
		"byteLength":448
	},
	{
		"uri":"data:application/octet-stream;base64,",
		"byteLength":448
	},
	{
		"uri":"data:application/octet-stream;base64,",
		"byteLength":448
	},
	{
		"uri":"data:application/octet-stream;base64,",
		"byteLength":448
	},
	{
		"uri":"data:application/octet-stream;base64,",
		"byteLength":448
	}],
	"materials":[{
		"pbrMetallicRoughness":{
			"baseColorFactor":[0.9803921568627451,
			0.5019607843137255,
			0.44705882352941175,
			0.8023350253807107],
			"metallicFactor":0.0,
			"roughnessFactor":0.25
		},
		"doubleSided":false,
		"emissiveFactor":[0.0,
		0.0,
		0.0],
		"alphaMode":"BLEND",
		"name":"Egg"
	},
	{
		"pbrMetallicRoughness":{
			"baseColorFactor":[0.20473773265651463,
			0.07378872598280469,
			0.07378872598280469,
			0.9902],
			"metallicFactor":0.0,
			"roughnessFactor":0.31
		},
		"doubleSided":false,
		"emissiveFactor":[0.0,
		0.0,
		0.0],
		"alphaMode":"BLEND",
		"name":"Fish"
	},
	{
		"pbrMetallicRoughness":{
			"baseColorFactor":[0.4580392428940421,
			0.2478431500173084,
			0.1380392214363697,
			1.0],
			"metallicFactor":0.800000011920929,
			"roughnessFactor":0.0
		},
		"doubleSided":false,
		"emissiveFactor":[0.0,
		0.0,
		0.0],
		"alphaMode":"OPAQUE",
		"name":"eye_gold"
	},
	{
		"pbrMetallicRoughness":{
			"baseColorFactor":[0.0,
			0.0,
			0.0,
			1.0],
			"metallicFactor":0.0,
			"roughnessFactor":0.16
		},
		"doubleSided":false,
		"emissiveFactor":[0.0,
		0.0,
		0.0],
		"alphaMode":"OPAQUE",
		"name":"Mat.4"
	}]
}