{
	"asset":{
		"version":"2.0",
		"generator":"Created using the official Cinema 4D glTF Exporter 1.000x284978"
	},
	"scenes":[{
		"nodes":[0]
	}],
	"nodes":[{
		"name":"Salmon-Steak-2",
		"mesh":0
	}],
	"textures":[{
		"sampler":0,
		"source":0
	},
	{
		"sampler":1,
		"source":1
	}],
	"meshes":[{
		"name":"Salmon-Steak-2",
		"primitives":[{
			"attributes":{
				"POSITION":1,
				"NORMAL":2,
				"TEXCOORD_0":3
			},
			"indices":0,
			"material":0
		}]
	}],
	"accessors":[{
		"bufferView":0,
		"byteOffset":0,
		"type":"SCALAR",
		"componentType":5123,
		"count":73122,
		"min":[0],
		"max":[12695]
	},
	{
		"bufferView":1,
		"byteOffset":0,
		"type":"VEC3",
		"componentType":5126,
		"count":12696,
		"min":[-13.642800331115723,
		-0.10859999805688858,
		-4.021599769592285],
		"max":[11.870699882507325,
		3.7881999015808107,
		1.9625999927520753]
	},
	{
		"bufferView":1,
		"byteOffset":12,
		"type":"VEC3",
		"componentType":5126,
		"count":12696,
		"min":[-0.9993438124656677,
		-1.0,
		-1.0],
		"max":[0.999250054359436,
		1.0,
		1.0]
	},
	{
		"bufferView":1,
		"byteOffset":24,
		"type":"VEC2",
		"componentType":5126,
		"count":12696,
		"min":[0.0008999999845400453,
		0.0015999998431652785],
		"max":[0.9991999864578247,
		0.9990999698638916]
	}],
	"bufferViews":[{
		"buffer":0,
		"byteOffset":0,
		"byteLength":146244,
		"target":34963
	},
	{
		"buffer":0,
		"byteOffset":146244,
		"byteLength":406272,
		"byteStride":32,
		"target":34962
	}],
	"buffers":[{
		"uri":"data:application/octet-stream;base64,",
		"byteLength":552516
	}],
	"images":[{
		"uri":"data:image/jpeg;base64,"
	},
	{
		"uri":"data:image/jpeg;base64,"
	}],
	"samplers":[{
		"minFilter":9729,
		"magFilter":9729,
		"wrapS":10497,
		"wrapT":10497
	},
	{
		"minFilter":9729,
		"magFilter":9729,
		"wrapS":10497,
		"wrapT":10497
	}],
	"materials":[{
		"pbrMetallicRoughness":{
			"baseColorTexture":{
				"index":0
			},
			"baseColorFactor":[0.5879999995231628,
			0.5879999995231628,
			0.5879999995231628,
			1.0],
			"metallicFactor":0.02,
			"roughnessFactor":0.45
		},
		"occlusionTexture":{
			"index":1,
			"strength":1.0
		},
		"emissiveFactor":[0.0,
		0.0,
		0.0],
		"alphaMode":"OPAQUE",
		"doubleSided":true,
		"name":"Salmon 1K"
	}]
}