{
	"asset":{
		"version":"2.0",
		"generator":"Created using the official Cinema 4D glTF Exporter 1.000x284978"
	},
	"animations":[{
		"samplers":[{
			"input":7,
			"interpolation":"LINEAR",
			"output":8
		}],
		"channels":[{
			"sampler":0,
			"target":{
				"path":"weights",
				"node":0
			}
		}]
	}],
	"scenes":[{
		"nodes":[0]
	}],
	"nodes":[{
		"name":"Smolt",
		"translation":[0.0,
		0.0,
		0.0],
		"scale":[1.0,
		1.0,
		1.0],
		"rotation":[0.0,
		-1.0,
		0.0,
		8.269460903057566e-16],
		"mesh":0
	}],
	"meshes":[{
		"name":"Smolt",
		"primitives":[{
			"targets":[{
				"POSITION":4
			},
			{
				"POSITION":5
			},
			{
				"POSITION":6
			}],
			"indices":0,
			"attributes":{
				"POSITION":1,
				"TEXCOORD_0":3,
				"NORMAL":2
			},
			"material":0
		}],
		"weights":[0.0,
		0.0,
		0.0]
	}],
	"accessors":[{
		"bufferView":0,
		"type":"SCALAR",
		"min":[0],
		"componentType":5123,
		"count":22740,
		"byteOffset":0,
		"max":[7021]
	},
	{
		"bufferView":1,
		"type":"VEC3",
		"min":[-4.8605756759643559,
		6.567479610443115,
		-23.119457244873048],
		"componentType":5126,
		"count":7022,
		"byteOffset":0,
		"max":[4.870326995849609,
		17.413494110107423,
		30.45724868774414]
	},
	{
		"bufferView":1,
		"type":"VEC3",
		"min":[-0.9999974370002747,
		-1.0,
		-0.996063768863678],
		"componentType":5126,
		"count":7022,
		"byteOffset":12,
		"max":[0.9999974966049194,
		1.0,
		0.9927905201911926]
	},
	{
		"bufferView":1,
		"type":"VEC2",
		"min":[0.0013623684644699097,
		0.0017039179801940919],
		"componentType":5126,
		"count":7022,
		"byteOffset":24,
		"max":[0.9939184188842773,
		0.9934251308441162]
	},
	{
		"bufferView":2,
		"type":"VEC3",
		"min":[0.0,
		0.0,
		0.0],
		"componentType":5126,
		"count":7022,
		"byteOffset":0,
		"max":[0.0,
		0.0,
		0.0]
	},
	{
		"bufferView":3,
		"type":"VEC3",
		"min":[-0.0007683869916945696,
		-0.003210511989891529,
		-0.005951589904725552],
		"componentType":5126,
		"count":7022,
		"byteOffset":0,
		"max":[0.0007648002938367426,
		0.003417158965021372,
		0.003210250521078706]
	},
	{
		"bufferView":4,
		"type":"VEC3",
		"min":[-2.090071678161621,
		-8.732839584350586,
		-16.18878173828125],
		"componentType":5126,
		"count":7022,
		"byteOffset":0,
		"max":[2.080315589904785,
		9.29493522644043,
		8.732128143310547]
	},
	{
		"bufferView":5,
		"type":"SCALAR",
		"min":[0.3333333432674408],
		"componentType":5126,
		"count":3,
		"byteOffset":0,
		"max":[3.6666667461395265]
	},
	{
		"bufferView":5,
		"type":"SCALAR",
		"min":[0.0],
		"componentType":5126,
		"count":9,
		"byteOffset":12,
		"max":[1.0]
	}],
	"samplers":[{
		"magFilter":9729,
		"minFilter":9729,
		"wrapS":10497,
		"wrapT":10497
	},
	{
		"magFilter":9729,
		"minFilter":9729,
		"wrapS":10497,
		"wrapT":10497
	}],
	"bufferViews":[{
		"target":34963,
		"buffer":0,
		"byteOffset":0,
		"byteLength":45480
	},
	{
		"target":34962,
		"buffer":0,
		"byteOffset":45480,
		"byteStride":32,
		"byteLength":224704
	},
	{
		"target":34962,
		"buffer":0,
		"byteOffset":270184,
		"byteLength":84264
	},
	{
		"target":34962,
		"buffer":0,
		"byteOffset":354448,
		"byteLength":84264
	},
	{
		"target":34962,
		"buffer":0,
		"byteOffset":438712,
		"byteLength":84264
	},
	{
		"buffer":1,
		"byteOffset":0,
		"byteLength":48
	}],
	"textures":[{
		"sampler":0,
		"source":0
	},
	{
		"sampler":1,
		"source":1
	}],
	"buffers":[{
		"uri":"data:application/octet-stream;base64,",
		"byteLength":522976
	},
	{
		"uri":"data:application/octet-stream;base64,",
		"byteLength":48
	}],
	"images":[{
		"uri":"data:image/jpeg;base64,"
	},
	{
		"uri":"data:image/jpeg;base64,"
	}],
	"materials":[{
		"pbrMetallicRoughness":{
			"baseColorTexture":{
				"index":0
			},
			"baseColorFactor":[0.5,
			0.5,
			0.5,
			1.0],
			"metallicFactor":0.35000000000000006,
			"roughnessFactor":0.34
		},
		"occlusionTexture":{
			"index":1,
			"strength":1.0
		},
		"emissiveFactor":[0.0,
		0.0,
		0.0],
		"alphaMode":"OPAQUE",
		"doubleSided":true,
		"name":"Testt"
	}]
}