<?xml version="1.0" encoding="UTF-8" standalone="no"?><svg xmlns="http://www.w3.org/2000/svg" xmlns:xlink="http://www.w3.org/1999/xlink" width="15px" height="15px" viewBox="0 0 15 15" version="1.1"><title>call [#192]</title><g id="Page-1" stroke="none" stroke-width="1" fill="none" fill-rule="evenodd"><g id="Dribbble-Light-Preview" transform="translate(-103.000000, -7321.000000)" fill="#000"><g id="icons" transform="translate(56.000000, 160.000000)"><path d="M61.73 7173.996c-.463 1.407-2.277 2.109-3.573 1.992-1.77-.16-3.696-1.099-5.158-2.133-2.149-1.52-4.162-3.871-5.335-6.366-.829-1.763-1.015-3.931.218-5.538.456-.594.95-.911 1.69-.948 1.028-.05 1.172.538 1.525 1.454.263.685.614 1.384.81 2.094.367 1.325-.916 1.38-1.078 2.463-.1.683.727 1.599 1.101 2.086a10.105 10.105 0 0 0 2.608 2.403c.57.359 1.488 1.006 2.14.649 1.004-.55.91-2.243 2.313-1.67.727.296 1.431.723 2.125 1.097 1.073.577 1.023 1.175.614 2.417-.306.928.306-.928 0 0" id="call-[#192]"/></g></g></g><metadata><rdf:RDF xmlns:rdf="http://www.w3.org/1999/02/22-rdf-syntax-ns#" xmlns:rdfs="http://www.w3.org/2000/01/rdf-schema#" xmlns:dc="http://purl.org/dc/elements/1.1/"><rdf:Description about="https://iconscout.com/legal#licenses" dc:title="call" dc:description="call" dc:publisher="Iconscout" dc:date="2017-09-15" dc:format="image/svg+xml" dc:language="en"><dc:creator><rdf:Bag><rdf:li>Alexandru Stoica</rdf:li></rdf:Bag></dc:creator></rdf:Description></rdf:RDF></metadata></svg>