<?xml version="1.0" encoding="UTF-8"?><!DOCTYPE svg PUBLIC "-//W3C//DTD SVG 1.1//EN" "http://www.w3.org/Graphics/SVG/1.1/DTD/svg11.dtd"><svg xmlns="http://www.w3.org/2000/svg" xmlns:xlink="http://www.w3.org/1999/xlink" version="1.1" id="Layer_1" x="0px" y="0px" width="512px" height="512px" viewBox="0 0 512 512" xml:space="preserve"><path fill="#1C2541" d="M256 32C132.3 32 32 132.3 32 256s100.3 224 224 224 224-100.3 224-224S379.7 32 256 32zm114.9 149.1L231.8 359.6c-1.1 1.1-2.9 3.5-5.1 3.5-2.3 0-3.8-1.6-5.1-2.9-1.3-1.3-78.9-75.9-78.9-75.9l-1.5-1.5c-.6-.9-1.1-2-1.1-3.2 0-1.2.5-2.3 1.1-3.2.4-.4.7-.7 1.1-1.2 7.7-8.1 23.3-24.5 24.3-25.5 1.3-1.3 2.4-3 4.8-3 2.5 0 4.1 2.1 5.3 3.3 1.2 1.2 45 43.3 45 43.3l111.3-143c1-.8 2.2-1.4 3.5-1.4 1.3 0 2.5.5 3.5 1.3l30.6 24.1c.8 1 1.3 2.2 1.3 3.5.1 1.3-.4 2.4-1 3.3z"/><metadata><rdf:RDF xmlns:rdf="http://www.w3.org/1999/02/22-rdf-syntax-ns#" xmlns:rdfs="http://www.w3.org/2000/01/rdf-schema#" xmlns:dc="http://purl.org/dc/elements/1.1/"><rdf:Description about="https://iconscout.com/legal#licenses" dc:title="checkmark,circled" dc:description="checkmark,circled" dc:publisher="Iconscout" dc:date="2017-09-24" dc:format="image/svg+xml" dc:language="en"><dc:creator><rdf:Bag><rdf:li>Benjamin J Sperry</rdf:li></rdf:Bag></dc:creator></rdf:Description></rdf:RDF></metadata></svg>