<?xml version="1.0" encoding="UTF-8"?><svg xmlns="http://www.w3.org/2000/svg" xmlns:xlink="http://www.w3.org/1999/xlink" version="1.1" id="Layer_1" x="0px" y="0px" viewBox="0 0 24 24" xml:space="preserve"><path fill="#fff" d="M23.22 9.396a11.599 11.599 0 0 0-.365-1.324C21.256 3.244 16.894 0 12 0 6.295 0 1.353 4.484.505 10.429a.502.502 0 0 0 .32.54c.221.08.468 0 .596-.199C4.152 6.516 8.935 5 12.5 5c3.172 0 4.749 1.989 4.973 4H7.938c.206-.614.47-1.173.792-1.668a.5.5 0 1 0-.664-.709 10.762 10.762 0 0 0-3.105 2.562C3.964 10.414 3.5 12.103 3.5 14.5c0 4.32 3.263 8.013 8.119 9.189.875.212 1.842.311 3.041.311h.103c.595 0 1.08-.025 1.528-.078 2.076-.244 3.701-.732 4.967-1.494A.5.5 0 0 0 21.5 22v-3.84a.502.502 0 0 0-.759-.429c-1.018.615-2.279 1.023-3.655 1.182-.464.062-1.088.087-2.086.087-4.172 0-6.299-1.637-6.486-5H23a.5.5 0 0 0 .5-.5V12a12.6 12.6 0 0 0-.28-2.604z"/><metadata><rdf:RDF xmlns:rdf="http://www.w3.org/1999/02/22-rdf-syntax-ns#" xmlns:rdfs="http://www.w3.org/2000/01/rdf-schema#" xmlns:dc="http://purl.org/dc/elements/1.1/"><rdf:Description about="https://iconscout.com/legal#licenses" dc:title="edge" dc:description="edge" dc:publisher="Iconscout" dc:date="2018-01-05" dc:format="image/svg+xml" dc:language="en"><dc:creator><rdf:Bag><rdf:li>Icon 54</rdf:li></rdf:Bag></dc:creator></rdf:Description></rdf:RDF></metadata></svg>
