<svg xmlns="http://www.w3.org/2000/svg" enable-background="new 0 0 52 52" viewBox="0 0 52 52"><path d="M2.3 10.9c-.8.8-1.3 2-1.3 3.2v23.8c0 .8.2 1.7.6 2.3l17.6-14.3L2.3 10.9zM27.6 27.8l21.2-17.6c-.7-.4-1.5-.7-2.4-.7H5.6C5 9.5 4.5 9.6 4 9.8l20.3 18C25.3 28.6 26.7 28.6 27.6 27.8zM50.3 11.6L32.9 26l17.5 14.1c.4-.7.6-1.5.6-2.2V14.1C51 13.2 50.7 12.3 50.3 11.6z"/><path d="M28.9,29.3c-1.6,1.4-4.1,1.4-5.8,0l-2.4-2.1L3,41.7c0.8,0.5,1.6,0.8,2.5,0.8h40.8c1,0,1.9-0.3,2.7-0.8L31.4,27.3L28.9,29.3
		z"/></svg>