<?xml version="1.0" encoding="UTF-8"?><svg xmlns="http://www.w3.org/2000/svg" viewBox="0 0 50 50"><path fill="#fff" d="M25.385 2c-6.62 0-12.595 2.8-16.8 7.275a20.443 20.443 0 0 1-.698-3.021.032.032 0 0 1 .006-.012v-.006a.954.954 0 0 0-.948-.814.955.955 0 0 0-.71.316c-2.516 2.777-2.65 7.735-2.64 9.069C1.435 17.96 1.003 19.285 1 20.477c0 .838.098 1.23.375 1.505a.97.97 0 0 0 .428.248 17.279 17.279 0 0 0-.436 3.782c0 9.222 8.207 21.998 23.617 21.998 10.074 0 15.947-5.969 19.098-10.975C47.665 31.347 49 24.937 49 22.232c-.001-1.837-.319-3.172-.422-3.61a.97.97 0 0 0-.935-.749h-.014c-.38-2.756-1.289-6.538-3.47-8.691a.962.962 0 0 0-1.483.166 11.323 11.323 0 0 0-1.91-1.705 17.716 17.716 0 0 0-1.036-.627 1 1 0 0 0-.109-.094A22.968 22.968 0 0 0 25.385 2zm0 2c2.234 0 4.38.364 6.398 1.008-.572.004-1.156.016-1.78.049l.03.002c2.893.044 5.031 2.851 5.28 3.632a5.528 5.528 0 0 0-1.65-.068c-.51.058-.946.174-1.257.283 4.63 1.974 9.546 4.665 8.9 8.899-.449-.76-1.358-1.314-1.831-1.33-.02 0-.042-.005-.06-.004 1.35 2.698.995 6.188.274 9.37-.21-1.567-1.433-2.978-1.433-2.978s1.292 7.463-2.54 11.248c.603-1.488.52-3.67.52-3.67S32.08 37 27.004 37c-5.075 0-8.16-3.205-9-4 .318.026 1.077.064 1.38.064l-.013-.002c.291.002.575-.01.852-.03 3.974-.297 6.263-2.626 6.502-2.798.357-.256.6-.35.869-.35.173 0 .354.038.584.1.06.017.133.01.205 0 .294-.039.62-.28.62-.648 0-.675-1.378-2.334-3.403-2.334-2.324 0-2.452 1.639-4.745 1.639-2.328 0-5.146-3.502-5.228-3.791 0-.368.066-1.589 1.371-1.784 1.711.271 2.91.6 3.256.616.316-1.77-.63-3.33-.78-3.63.674-.855 2.91-2.268 3.126-2.42.399-.278.826-.976.826-1.374 0-.344-.367-.43-.367-.43s-.525-.02-1.377-.092c-1.585-.133-1.711-.395-2.506-1.1-.57-.502-1.53-1.59-1.53-1.59s.245-2.079 3.456-4.983c-2.63 0-6.176 3.087-6.176 3.087s-.765-.367-1.897-.367c-2.049 0-3.425.703-3.425.703s-.07-.09-.145-.203a1 1 0 0 0 .023-.025C13.342 6.81 19.03 4 25.385 4z"/><metadata><rdf:RDF xmlns:rdf="http://www.w3.org/1999/02/22-rdf-syntax-ns#" xmlns:rdfs="http://www.w3.org/2000/01/rdf-schema#" xmlns:dc="http://purl.org/dc/elements/1.1/"><rdf:Description about="https://iconscout.com/legal#licenses" dc:title="firefox,filled" dc:description="firefox,filled" dc:publisher="Iconscout" dc:date="2017-12-09" dc:format="image/svg+xml" dc:language="en"><dc:creator><rdf:Bag><rdf:li>Icons8</rdf:li></rdf:Bag></dc:creator></rdf:Description></rdf:RDF></metadata></svg>
