<svg xmlns="http://www.w3.org/2000/svg" enable-background="new 0 0 68 68" viewBox="0 0 68 68"><path d="M57.5561028,55.3158417c-2.7229881-2.7291412-5.8264961-4.9275322-9.2005119-6.5402298
		c1.0105247-4.3124084,1.5632019-9.0704193,1.616993-13.9877586H65.75
		C65.5655365,42.42696,62.6793175,49.6579704,57.5561028,55.3158417z M39.6487694,65.2724075
		c4.3256035-3.3376923,6.9032555-9.6867371,8.3052025-14.9389153c3.1189613,1.5289612,5.9960175,3.5784149,8.5224266,6.1165543
		C51.9808121,60.9594383,46.2312355,64.103569,39.6487694,65.2724075z M11.5236034,56.4500465
		c2.5264072-2.5381393,5.4034615-4.5875931,8.5224247-6.1165543c1.4019413,5.2521591,3.9795876,11.6012154,8.3052025,14.9389153
		C23.2119694,64.3598404,16.2994652,61.2405777,11.5236034,56.4500465z M2.25,34.7878532h15.7774162
		c0.053793,4.9173393,0.6064682,9.6753502,1.616993,13.9877586c-3.3740139,1.6126976-6.4775257,3.8110886-9.200511,6.5402298
		C5.320684,49.6579704,2.4344604,42.42696,2.25,34.7878532z M10.4438982,12.7016621
		c2.7229853,2.7291403,5.8264971,4.9274693,9.2004461,6.5401669c-1.0093689,4.3074722-1.5616608,9.0595207-1.6165428,13.9703217
		H2.2503848C2.4386277,25.5804806,5.3241463,18.3561363,10.4438982,12.7016621z M28.3538609,2.7275329
		c-4.3078613,3.3258634-6.8962345,9.6677513-8.3078957,14.95648c-3.1192207-1.529026-5.9965315-3.5785427-8.5230036-6.11726
		C16.187027,6.8779674,21.9669609,3.8616068,28.3538609,2.7275329z M56.4770393,11.5667534
		c-2.526474,2.5387173-5.4038506,4.5882339-8.5231323,6.1173248c-1.413887-5.2964764-4.0041046-11.6337538-8.3078308-14.9565449
		C46.1176796,3.8768423,51.8848267,6.9529076,56.4770393,11.5667534z M33.2121468,20.8756847
		c-4.1024284-0.0984821-8.0587406-0.9598103-11.7151833-2.5251904c1.6201439-6.2016735,5.428442-15.2795525,11.7151833-16.0736294
		V20.8756847z M33.2121468,22.4508095v10.7613411H19.6033745c0.0533447-4.6805611,0.5708218-9.2017956,1.5092793-13.3114071
		C24.8960457,21.4853592,28.980526,22.3540592,33.2121468,22.4508095z M33.2121468,34.7878532v10.7787781
		c-4.2315578,0.0967484-8.3159714,0.9653854-12.0993633,2.5500031c-0.9396133-4.1146774-1.4574738-8.6421318-1.5097923-13.3287811
		H33.2121468z M33.2121468,47.141758v18.5813789c-6.2997112-0.7954941-10.0984554-9.8690147-11.7149906-16.0561905
		C25.153471,48.1016312,29.1095257,47.2402382,33.2121468,47.141758z M34.7878532,47.141758
		c4.102623,0.0984802,8.0587387,0.9599342,11.7150574,2.5252533c-1.6146317,6.1798782-5.4203033,15.2612572-11.7150574,16.0561256
		V47.141758z M34.7878532,45.5666313V34.7878532h13.6091576c-0.0523186,4.6866493-0.570179,9.2141037-1.5097923,13.3287811
		C43.1038246,46.5320168,39.0194092,45.6633797,34.7878532,45.5666313z M34.7878532,33.2121506V22.4508095
		c4.2316208-0.0967503,8.3160362-0.9654503,12.0994263-2.550066c0.9384613,4.1094837,1.4560013,8.6307812,1.509346,13.3114071
		H34.7878532z M34.7878532,20.8756847V2.276865c6.2918053,0.7947018,10.0949402,9.8718472,11.7151184,16.0736294
		C42.8464661,19.9158115,38.8902817,20.7772026,34.7878532,20.8756847z M49.9721985,33.2121506
		c-0.054882-4.9108639-0.6072388-9.6629143-1.6166077-13.9702587c3.3740158-1.6126957,6.4775238-3.8111534,9.2005119-6.5402937
		c5.1194954,5.6537695,8.0052681,12.8784323,8.1935158,20.5105515H49.9721985z"/></svg>