{
	"asset":{
		"version":"2.0",
		"generator":"Created using the official Cinema 4D glTF Exporter 1.000x284978"
	},
	"nodes":[{
		"name":"Fry-Retopo-4",
		"translation":[0.0,
		0.0,
		0.0],
		"rotation":[0.0,
		0.0,
		0.0,
		-1.0],
		"scale":[1.0,
		1.0,
		1.0],
		"children":[1,
		2]
	},
	{
		"name":"Sphere.1",
		"translation":[0.0,
		0.0,
		0.0],
		"rotation":[5.490560539203226e-17,
		-1.5722202050460696e-16,
		0.3296971619129181,
		-0.9440867304801941],
		"scale":[1.0,
		1.0,
		1.0],
		"mesh":0
	},
	{
		"name":"Fry Model 4",
		"translation":[19.816131591796876,
		-12.354501724243164,
		0.0],
		"rotation":[0.0,
		0.0,
		0.0,
		-1.0],
		"scale":[1.0,
		1.0,
		1.0],
		"children":[3,
		4,
		5]
	},
	{
		"name":"Fry Model 4-Fish",
		"translation":[0.0,
		0.0,
		0.0],
		"rotation":[0.0,
		-1.2246468525851679e-16,
		0.0,
		1.0],
		"scale":[1.0,
		1.0,
		1.0],
		"mesh":1
	},
	{
		"name":"Fry Model 4-eye_gold",
		"translation":[0.0,
		0.0,
		0.0],
		"rotation":[0.0,
		-1.2246468525851679e-16,
		0.0,
		1.0],
		"scale":[1.0,
		1.0,
		1.0],
		"mesh":2
	},
	{
		"name":"Fry Model 4-Mat.4",
		"translation":[0.0,
		0.0,
		0.0],
		"rotation":[0.0,
		-1.2246468525851679e-16,
		0.0,
		1.0],
		"scale":[1.0,
		1.0,
		1.0],
		"mesh":3
	}],
	"scenes":[{
		"nodes":[0]
	}],
	"meshes":[{
		"name":"Sphere.1",
		"primitives":[{
			"indices":0,
			"attributes":{
				"POSITION":1,
				"NORMAL":2,
				"TEXCOORD_0":3
			},
			"material":0
		}]
	},
	{
		"name":"Fry Model 4-Fish",
		"primitives":[{
			"indices":4,
			"attributes":{
				"POSITION":5,
				"NORMAL":6,
				"TEXCOORD_0":7
			},
			"material":1
		}]
	},
	{
		"name":"Fry Model 4-eye_gold",
		"primitives":[{
			"indices":8,
			"attributes":{
				"POSITION":9,
				"NORMAL":10,
				"TEXCOORD_0":11
			},
			"material":2
		}]
	},
	{
		"name":"Fry Model 4-Mat.4",
		"primitives":[{
			"indices":12,
			"attributes":{
				"POSITION":13,
				"NORMAL":14,
				"TEXCOORD_0":15
			},
			"material":3
		}]
	}],
	"accessors":[{
		"bufferView":0,
		"type":"SCALAR",
		"componentType":5123,
		"count":7200,
		"byteOffset":0,
		"min":[0],
		"max":[1323]
	},
	{
		"bufferView":1,
		"type":"VEC3",
		"componentType":5126,
		"count":1324,
		"byteOffset":0,
		"min":[-75.11619567871094,
		-75.60317993164063,
		-69.03398132324219],
		"max":[75.11619567871094,
		75.60317993164063,
		69.03398132324219]
	},
	{
		"bufferView":1,
		"type":"VEC3",
		"componentType":5126,
		"count":1324,
		"byteOffset":12,
		"min":[-0.9986769556999207,
		-0.9999368190765381,
		-0.9967381358146668],
		"max":[0.9986770749092102,
		0.9999368190765381,
		0.9967324733734131]
	},
	{
		"bufferView":1,
		"type":"VEC2",
		"componentType":5126,
		"count":1324,
		"byteOffset":24,
		"min":[0.0,
		0.0],
		"max":[25.0,
		25.0]
	},
	{
		"bufferView":2,
		"type":"SCALAR",
		"componentType":5123,
		"count":22383,
		"byteOffset":0,
		"min":[0],
		"max":[4088]
	},
	{
		"bufferView":3,
		"type":"VEC3",
		"componentType":5126,
		"count":4089,
		"byteOffset":0,
		"min":[-79.37397766113281,
		-58.383731842041019,
		-46.10491180419922],
		"max":[37.37366485595703,
		83.06998443603516,
		44.9212760925293]
	},
	{
		"bufferView":3,
		"type":"VEC3",
		"componentType":5126,
		"count":4089,
		"byteOffset":12,
		"min":[-0.999625027179718,
		-0.9993125200271606,
		-0.9996563196182251],
		"max":[0.9999688267707825,
		0.9995625615119934,
		0.9998750686645508]
	},
	{
		"bufferView":3,
		"type":"VEC2",
		"componentType":5126,
		"count":4089,
		"byteOffset":24,
		"min":[0.0010923147201538087,
		0.004019259475171566],
		"max":[0.9885685443878174,
		0.9957197904586792]
	},
	{
		"bufferView":4,
		"type":"SCALAR",
		"componentType":5123,
		"count":3072,
		"byteOffset":0,
		"min":[0],
		"max":[609]
	},
	{
		"bufferView":5,
		"type":"VEC3",
		"componentType":5126,
		"count":610,
		"byteOffset":0,
		"min":[-27.356727600097658,
		28.8596134185791,
		-34.35211181640625],
		"max":[31.840049743652345,
		55.58283233642578,
		-12.047830581665039]
	},
	{
		"bufferView":5,
		"type":"VEC3",
		"componentType":5126,
		"count":610,
		"byteOffset":12,
		"min":[-0.9980313181877136,
		-0.869562566280365,
		-0.9998750686645508],
		"max":[0.9959375262260437,
		0.8840000629425049,
		0.5758437514305115]
	},
	{
		"bufferView":5,
		"type":"VEC2",
		"componentType":5126,
		"count":610,
		"byteOffset":24,
		"min":[0.0,
		0.0],
		"max":[0.0,
		0.0]
	},
	{
		"bufferView":6,
		"type":"SCALAR",
		"componentType":5123,
		"count":9216,
		"byteOffset":0,
		"min":[0],
		"max":[1798]
	},
	{
		"bufferView":7,
		"type":"VEC3",
		"componentType":5126,
		"count":1799,
		"byteOffset":0,
		"min":[-27.9696102142334,
		27.099502563476564,
		-36.957542419433597],
		"max":[32.510894775390628,
		57.42522048950195,
		-8.843426704406739]
	},
	{
		"bufferView":7,
		"type":"VEC3",
		"componentType":5126,
		"count":1799,
		"byteOffset":12,
		"min":[-0.9978438019752502,
		-0.9995625615119934,
		-0.999000072479248],
		"max":[0.9971563220024109,
		0.9956563115119934,
		0.9996563196182251]
	},
	{
		"bufferView":7,
		"type":"VEC2",
		"componentType":5126,
		"count":1799,
		"byteOffset":24,
		"min":[0.0,
		0.0],
		"max":[0.0,
		0.0]
	}],
	"bufferViews":[{
		"buffer":0,
		"byteOffset":0,
		"byteLength":14400,
		"target":34963
	},
	{
		"buffer":0,
		"byteOffset":14400,
		"byteLength":42368,
		"target":34962,
		"byteStride":32
	},
	{
		"buffer":1,
		"byteOffset":0,
		"byteLength":44766,
		"target":34963
	},
	{
		"buffer":1,
		"byteOffset":44768,
		"byteLength":130848,
		"target":34962,
		"byteStride":32
	},
	{
		"buffer":2,
		"byteOffset":0,
		"byteLength":6144,
		"target":34963
	},
	{
		"buffer":2,
		"byteOffset":6144,
		"byteLength":19520,
		"target":34962,
		"byteStride":32
	},
	{
		"buffer":3,
		"byteOffset":0,
		"byteLength":18432,
		"target":34963
	},
	{
		"buffer":3,
		"byteOffset":18432,
		"byteLength":57568,
		"target":34962,
		"byteStride":32
	}],
	"buffers":[{
		"uri":"data:application/octet-stream;base64,",
		"byteLength":56768
	},
	{
		"uri":"data:application/octet-stream;base64,",
		"byteLength":175616
	},
	{
		"uri":"data:application/octet-stream;base64,",
		"byteLength":25664
	},
	{
		"uri":"data:application/octet-stream;base64,",
		"byteLength":76000
	}],
	"materials":[{
		"pbrMetallicRoughness":{
			"baseColorFactor":[1.0,
			0.6073333333333335,
			0.24,
			0.8023350253807107],
			"metallicFactor":0.0,
			"roughnessFactor":0.25
		},
		"emissiveFactor":[0.0,
		0.0,
		0.0],
		"alphaMode":"BLEND",
		"doubleSided":false,
		"name":"Egg Salmon"
	},
	{
		"pbrMetallicRoughness":{
			"baseColorFactor":[0.20473773265651463,
			0.07378872598280469,
			0.07378872598280469,
			1.0],
			"metallicFactor":1.0,
			"roughnessFactor":1.0
		},
		"emissiveFactor":[0.0,
		0.0,
		0.0],
		"alphaMode":"BLEND",
		"doubleSided":false,
		"name":"Fish"
	},
	{
		"pbrMetallicRoughness":{
			"baseColorFactor":[0.4580392428940421,
			0.2478431500173084,
			0.1380392214363697,
			1.0],
			"metallicFactor":0.800000011920929,
			"roughnessFactor":0.0
		},
		"emissiveFactor":[0.0,
		0.0,
		0.0],
		"alphaMode":"OPAQUE",
		"doubleSided":false,
		"name":"eye_gold"
	},
	{
		"pbrMetallicRoughness":{
			"baseColorFactor":[0.0,
			0.0,
			0.0,
			1.0],
			"metallicFactor":0.0,
			"roughnessFactor":0.16
		},
		"emissiveFactor":[0.0,
		0.0,
		0.0],
		"alphaMode":"OPAQUE",
		"doubleSided":false,
		"name":"Mat.4"
	}]
}