{
	"asset":{
		"version":"2.0",
		"generator":"Created using the official Cinema 4D glTF Exporter 1.000x290161"
	},
	"scenes":[{
		"nodes":[0]
	}],
	"nodes":[{
		"name":"Sphere",
		"translation":[79.35896301269531,
		-17.69439125061035,
		75.92731475830078],
		"rotation":[0.31011155247688296,
		-0.9353676438331604,
		0.006663291249424219,
		0.16992299258708955],
		"scale":[1.0,
		1.0,
		1.0],
		"mesh":0
	}],
	"meshes":[{
		"primitives":[{
			"attributes":{
				"POSITION":1,
				"NORMAL":2,
				"TEXCOORD_0":3
			},
			"indices":0,
			"material":0
		}]
	}],
	"accessors":[{
		"bufferView":0,
		"type":"SCALAR",
		"componentType":5123,
		"count":7200,
		"byteOffset":0,
		"min":[0],
		"max":[1323]
	},
	{
		"bufferView":1,
		"type":"VEC3",
		"componentType":5126,
		"count":1324,
		"byteOffset":0,
		"min":[-68.70082092285156,
		-67.6845474243164,
		-67.59774017333985],
		"max":[68.07670593261719,
		67.85533142089844,
		68.06214141845703]
	},
	{
		"bufferView":1,
		"type":"VEC3",
		"componentType":5126,
		"count":1324,
		"byteOffset":12,
		"min":[-0.9981269836425781,
		-0.9999200701713562,
		-0.9975636601448059],
		"max":[0.9978715181350708,
		0.9998827576637268,
		0.9972958564758301]
	},
	{
		"bufferView":1,
		"type":"VEC2",
		"componentType":5126,
		"count":1324,
		"byteOffset":24,
		"min":[0.0004398450255393982,
		0.003839433193206787],
		"max":[0.994659423828125,
		0.9980621337890625]
	}],
	"bufferViews":[{
		"buffer":0,
		"byteOffset":0,
		"byteLength":14400,
		"target":34963
	},
	{
		"buffer":0,
		"byteOffset":14400,
		"byteLength":42368,
		"target":34962,
		"byteStride":32
	}],
	"buffers":[{
		"uri":"data:application/octet-stream;base64,",
		"byteLength":56768
	}],
	"images":[{
		"uri":"data:image/jpeg;base64,"
	},
	{
		"uri":"data:image/jpeg;base64,"
	},
	{
		"uri":"data:image/jpeg;base64,"
	},
	{
		"uri":"data:image/jpeg;base64,"
	}],
	"samplers":[{
		"magFilter":9729,
		"minFilter":9729,
		"wrapS":10497,
		"wrapT":10497
	},
	{
		"magFilter":9729,
		"minFilter":9729,
		"wrapS":10497,
		"wrapT":10497
	},
	{
		"magFilter":9729,
		"minFilter":9729,
		"wrapS":10497,
		"wrapT":10497
	},
	{
		"magFilter":9729,
		"minFilter":9729,
		"wrapS":10497,
		"wrapT":10497
	}],
	"textures":[{
		"sampler":0,
		"source":0
	},
	{
		"sampler":1,
		"source":1
	},
	{
		"sampler":2,
		"source":2
	},
	{
		"sampler":3,
		"source":3
	}],
	"materials":[{
		"pbrMetallicRoughness":{
			"baseColorTexture":{
				"index":0
			},
			"baseColorFactor":[1.0,
			1.0,
			1.0,
			1.0],
			"metallicFactor":0.0,
			"roughnessFactor":0.22
		},
		"normalTexture":{
			"index":1,
			"scale":0.2
		},
		"occlusionTexture":{
			"index":2,
			"strength":0.92
		},
		"emissiveTexture":{
			"index":3
		},
		"emissiveFactor":[0.04,
		0.04,
		0.04],
		"alphaMode":"OPAQUE",
		"doubleSided":true,
		"name":"Mat.6"
	}]
}