{
	"asset":{
		"version":"2.0",
		"generator":"Created using the official Cinema 4D glTF Exporter 1.000x290161"
	},
	"scenes":[{
		"nodes":[0]
	}],
	"nodes":[{
		"name":"Salmon Egg SuBD",
		"children":[1,
		2]
	},
	{
		"name":"Fish",
		"translation":[73.97471618652344,
		-11.691702842712403,
		78.72281646728516],
		"rotation":[0.2548923194408417,
		-0.9581186771392822,
		0.022617556154727937,
		0.12855741381645204],
		"scale":[1.0,
		1.0,
		1.0],
		"mesh":0
	},
	{
		"name":"Sphere",
		"translation":[73.67090606689453,
		-10.962733268737793,
		78.70335388183594],
		"rotation":[0.30998343229293826,
		-0.9375107884407044,
		0.010711640119552613,
		0.15769942104816438],
		"scale":[0.8999999761581421,
		0.8999999761581421,
		0.8999999761581421],
		"mesh":1,
		"children":[3]
	},
	{
		"name":"Cloth Surface",
		"translation":[27.856374740600587,
		59.9492301940918,
		105.8162841796875],
		"rotation":[0.31011155247688296,
		-0.9353676438331604,
		0.006663291249424219,
		-0.16992299258708955],
		"scale":[1.1111111640930176,
		1.1111111640930176,
		1.1111111640930176],
		"children":[4]
	},
	{
		"name":"Sphere",
		"translation":[80.15145874023438,
		-17.823591232299806,
		76.61927032470703],
		"rotation":[0.31011155247688296,
		-0.9353676438331604,
		0.006663291249424219,
		0.16992299258708955],
		"scale":[1.0199999809265137,
		1.0199999809265137,
		1.0199999809265137],
		"mesh":2
	}],
	"meshes":[{
		"primitives":[{
			"attributes":{
				"POSITION":1,
				"NORMAL":2,
				"TEXCOORD_0":3
			},
			"indices":0,
			"material":0
		}]
	},
	{
		"primitives":[{
			"attributes":{
				"POSITION":5,
				"NORMAL":6,
				"TEXCOORD_0":7
			},
			"indices":4,
			"material":1
		}]
	},
	{
		"primitives":[{
			"attributes":{
				"POSITION":15,
				"NORMAL":16,
				"TEXCOORD_0":17
			},
			"indices":14,
			"material":2
		}]
	}],
	"accessors":[{
		"bufferView":0,
		"type":"SCALAR",
		"componentType":5123,
		"count":117600,
		"byteOffset":0,
		"min":[0],
		"max":[20092]
	},
	{
		"bufferView":1,
		"type":"VEC3",
		"componentType":5126,
		"count":20093,
		"byteOffset":0,
		"min":[-69.10388946533203,
		-68.29202270507813,
		-68.06746673583985],
		"max":[68.51079559326172,
		68.46391296386719,
		68.53585815429688]
	},
	{
		"bufferView":1,
		"type":"VEC3",
		"componentType":5126,
		"count":20093,
		"byteOffset":12,
		"min":[-0.9998906850814819,
		-0.9999201893806458,
		-0.9998500943183899],
		"max":[0.9999784827232361,
		0.9998829960823059,
		0.9998646378517151]
	},
	{
		"bufferView":1,
		"type":"VEC2",
		"componentType":5126,
		"count":20093,
		"byteOffset":24,
		"min":[0.0004398450255393982,
		0.005044221878051758],
		"max":[0.994659423828125,
		0.9968109130859375]
	},
	{
		"bufferView":2,
		"type":"SCALAR",
		"componentType":5123,
		"count":7200,
		"byteOffset":0,
		"min":[0],
		"max":[1323]
	},
	{
		"bufferView":3,
		"type":"VEC3",
		"componentType":5126,
		"count":1324,
		"byteOffset":0,
		"min":[-69.34548950195313,
		-68.3196792602539,
		-68.23206329345703],
		"max":[68.71552276611328,
		68.49207305908203,
		68.70082092285156]
	},
	{
		"bufferView":3,
		"type":"VEC3",
		"componentType":5126,
		"count":1324,
		"byteOffset":12,
		"min":[-0.9981269836425781,
		-0.9999200701713562,
		-0.9975636601448059],
		"max":[0.997871458530426,
		0.9998827576637268,
		0.9972958564758301]
	},
	{
		"bufferView":3,
		"type":"VEC2",
		"componentType":5126,
		"count":1324,
		"byteOffset":24,
		"min":[0.0004398450255393982,
		0.003839433193206787],
		"max":[0.994659423828125,
		0.9980621337890625]
	},
	{
		"bufferView":4,
		"type":"SCALAR",
		"componentType":5126,
		"count":91,
		"byteOffset":0,
		"min":[0.0],
		"max":[3.0]
	},
	{
		"bufferView":4,
		"type":"VEC3",
		"componentType":5126,
		"count":91,
		"byteOffset":364,
		"min":[73.67082977294922,
		-11.946714401245118,
		78.70335388183594],
		"max":[74.08099365234375,
		-10.962533950805664,
		78.72962188720703]
	},
	{
		"bufferView":5,
		"type":"SCALAR",
		"componentType":5126,
		"count":91,
		"byteOffset":0,
		"min":[0.0],
		"max":[3.0]
	},
	{
		"bufferView":5,
		"type":"VEC4",
		"componentType":5126,
		"count":91,
		"byteOffset":364,
		"min":[0.23530687391757966,
		-0.9643640518188477,
		0.010707942768931389,
		0.11813948303461075],
		"max":[0.3099982440471649,
		-0.9375045895576477,
		0.02599487639963627,
		0.15770722925662995]
	},
	{
		"bufferView":6,
		"type":"SCALAR",
		"componentType":5126,
		"count":91,
		"byteOffset":0,
		"min":[0.0],
		"max":[3.0]
	},
	{
		"bufferView":6,
		"type":"VEC3",
		"componentType":5126,
		"count":91,
		"byteOffset":364,
		"min":[0.8999999761581421,
		0.8999999761581421,
		0.8999999761581421],
		"max":[0.8999999761581421,
		0.8999999761581421,
		0.8999999761581421]
	},
	{
		"bufferView":7,
		"type":"SCALAR",
		"componentType":5123,
		"count":7200,
		"byteOffset":0,
		"min":[0],
		"max":[1323]
	},
	{
		"bufferView":8,
		"type":"VEC3",
		"componentType":5126,
		"count":1324,
		"byteOffset":0,
		"min":[-69.34548950195313,
		-68.3196792602539,
		-68.23206329345703],
		"max":[68.71552276611328,
		68.49207305908203,
		68.70082092285156]
	},
	{
		"bufferView":8,
		"type":"VEC3",
		"componentType":5126,
		"count":1324,
		"byteOffset":12,
		"min":[-0.9981269836425781,
		-0.9999200701713562,
		-0.9975636601448059],
		"max":[0.997871458530426,
		0.9998827576637268,
		0.9972958564758301]
	},
	{
		"bufferView":8,
		"type":"VEC2",
		"componentType":5126,
		"count":1324,
		"byteOffset":24,
		"min":[0.0004398450255393982,
		0.003839433193206787],
		"max":[0.994659423828125,
		0.9980621337890625]
	}],
	"bufferViews":[{
		"buffer":0,
		"byteOffset":0,
		"byteLength":235200,
		"target":34963
	},
	{
		"buffer":0,
		"byteOffset":235200,
		"byteLength":642976,
		"target":34962,
		"byteStride":32
	},
	{
		"buffer":1,
		"byteOffset":0,
		"byteLength":14400,
		"target":34963
	},
	{
		"buffer":1,
		"byteOffset":14400,
		"byteLength":42368,
		"target":34962,
		"byteStride":32
	},
	{
		"buffer":2,
		"byteOffset":0,
		"byteLength":1456
	},
	{
		"buffer":2,
		"byteOffset":1456,
		"byteLength":1820
	},
	{
		"buffer":2,
		"byteOffset":3276,
		"byteLength":1456
	},
	{
		"buffer":3,
		"byteOffset":0,
		"byteLength":14400,
		"target":34963
	},
	{
		"buffer":3,
		"byteOffset":14400,
		"byteLength":42368,
		"target":34962,
		"byteStride":32
	}],
	"buffers":[{
		"uri":"data:application/octet-stream;base64,",
		"byteLength":878176
	},
	{
		"uri":"data:application/octet-stream;base64,",
		"byteLength":56768
	},
	{
		"uri":"data:application/octet-stream;base64,",
		"byteLength":4732
	},
	{
		"uri":"data:application/octet-stream;base64,",
		"byteLength":56768
	}],
	"images":[{
		"uri":"data:image/jpeg;base64,"
	},
	{
		"uri":"data:image/jpeg;base64,"
	}],
	"samplers":[{
		"magFilter":9729,
		"minFilter":9729,
		"wrapS":10497,
		"wrapT":10497
	},
	{
		"magFilter":9729,
		"minFilter":9729,
		"wrapS":10497,
		"wrapT":10497
	},
	{
		"magFilter":9729,
		"minFilter":9729,
		"wrapS":10497,
		"wrapT":10497
	}],
	"textures":[{
		"sampler":0,
		"source":0
	},
	{
		"sampler":1,
		"source":1
	},
	{
		"sampler":2,
		"source":1
	}],
	"materials":[{
		"pbrMetallicRoughness":{
			"baseColorTexture":{
				"index":0
			},
			"baseColorFactor":[1.0,
			1.0,
			1.0,
			1.0],
			"metallicFactor":0.0,
			"roughnessFactor":0.22
		},
		"emissiveTexture":{
			"index":1
		},
		"emissiveFactor":[1.0,
		1.0,
		1.0],
		"alphaMode":"OPAQUE",
		"doubleSided":false,
		"name":"Mat.8"
	},
	{
		"pbrMetallicRoughness":{
			"baseColorFactor":[0.8,
			0.8,
			0.8,
			1.0],
			"metallicFactor":1.0,
			"roughnessFactor":1.0
		},
		"emissiveTexture":{
			"index":2
		},
		"emissiveFactor":[0.92,
		0.92,
		0.92],
		"alphaMode":"OPAQUE",
		"doubleSided":false,
		"name":"Mat.9"
	},
	{
		"pbrMetallicRoughness":{
			"baseColorFactor":[0.93,
			0.6882,
			0.6882,
			0.0],
			"metallicFactor":0.0,
			"roughnessFactor":0.12
		},
		"emissiveFactor":[0.0,
		0.0,
		0.0],
		"alphaMode":"BLEND",
		"doubleSided":false,
		"name":"Glass"
	}],
	"animations":[{
		"samplers":[{
			"input":8,
			"interpolation":"LINEAR",
			"output":9
		},
		{
			"input":10,
			"interpolation":"LINEAR",
			"output":11
		},
		{
			"input":12,
			"interpolation":"LINEAR",
			"output":13
		}],
		"channels":[{
			"sampler":0,
			"target":{
				"node":2,
				"path":"translation"
			}
		},
		{
			"sampler":1,
			"target":{
				"node":2,
				"path":"rotation"
			}
		},
		{
			"sampler":2,
			"target":{
				"node":2,
				"path":"scale"
			}
		}]
	}]
}